<?xml version="1.0" encoding="UTF-8" standalone="no"?>
<!-- Created with Inkscape (http://www.inkscape.org/) -->

<svg
   width="297mm"
   height="100mm"
   viewBox="0 0 297 100"
   version="1.1"
   id="svg1"
   inkscape:version="1.4.2 (ebf0e940d0, 2025-05-08)"
   sodipodi:docname="small_souls.svg"
   xmlns:inkscape="http://www.inkscape.org/namespaces/inkscape"
   xmlns:sodipodi="http://sodipodi.sourceforge.net/DTD/sodipodi-0.dtd"
   xmlns="http://www.w3.org/2000/svg"
   xmlns:svg="http://www.w3.org/2000/svg">
  <sodipodi:namedview
     id="namedview1"
     pagecolor="#ffffff"
     bordercolor="#000000"
     borderopacity="0.25"
     inkscape:showpageshadow="2"
     inkscape:pageopacity="0.0"
     inkscape:pagecheckerboard="0"
     inkscape:deskcolor="#d1d1d1"
     inkscape:document-units="mm"
     inkscape:zoom="0.53543895"
     inkscape:cx="571.49372"
     inkscape:cy="380.99582"
     inkscape:window-width="1910"
     inkscape:window-height="1051"
     inkscape:window-x="2564"
     inkscape:window-y="4"
     inkscape:window-maximized="1"
     inkscape:current-layer="layer1"
     showgrid="false" />
  <defs
     id="defs1" />
  <g
     inkscape:label="Layer 1"
     inkscape:groupmode="layer"
     id="layer1">
    <path
       d="m 47.534996,46.888486 -0.423333,0.465667 q -0.634999,-1.016 -1.100665,-2.158999 -0.465667,-1.142999 -0.465667,-2.751664 v -0.211667 q 0.04233,-3.090331 1.354666,-4.86833 0.381,-0.592666 0.888999,-1.100665 0.508,-0.508 0.931333,-0.931333 0.465666,-0.465666 0.761999,-0.846666 0.296333,-0.423333 0.296333,-0.719666 0,-0.211667 -0.126999,-0.338667 -0.127,-0.127 -0.127,-0.253999 0,-0.169334 0.127,-0.296334 0.126999,-0.169333 0.253999,-0.169333 0.296333,-0.04233 0.508,0.127 0.254,0.169333 0.254,0.550333 0,0.804333 -0.296333,1.354666 1.566332,-0.804333 3.936997,-1.439333 2.370665,-0.677332 4.61433,-1.693332 0.846666,-0.423333 1.650998,-0.888999 0.804333,-0.508 1.523999,-1.100666 -1.269999,-0.804332 -1.820332,-1.820332 -0.465666,0.423333 -1.058332,0.677333 -0.592666,0.254 -1.439333,0.254 -0.296333,0.677333 -1.058332,1.142999 -0.761999,0.465666 -1.735665,0.804333 -0.973666,0.338666 -2.031999,0.634999 -1.015999,0.254 -1.862665,0.508 -3.217331,0.973666 -5.037663,3.428997 -1.820332,2.455332 -1.820332,6.095996 0,2.074332 0.804333,4.063997 0.846666,1.947332 2.539998,3.428997 1.015999,-0.888999 2.116665,-1.396999 1.142999,-0.550333 2.201332,-0.550333 0.677332,0 1.354665,0.08467 0.719666,0.04233 1.439332,0.254 1.439333,-1.947332 3.344331,-3.174998 1.947332,-1.269999 4.021664,-1.650999 -0.08467,-0.465666 -0.296333,-0.888999 -0.211667,-0.423333 -0.465667,-0.888999 -0.296333,0.931332 -0.973665,1.269999 -0.677333,0.338666 -1.608666,0.338666 -0.677333,0 -1.015999,-0.423333 -0.338667,-0.423333 -0.423333,-0.888999 -0.04233,-0.508 0.127,-0.931333 0.211666,-0.423333 0.507999,-0.423333 0.169334,0 0.423333,0.254 0.296334,0.211666 0.296334,0.423333 0,0.338666 -0.338667,0.465666 -0.338666,0.127 -0.338666,0.423333 0,0.550333 0.380999,0.677333 0.423333,0.08467 0.931333,-0.127 0.508,-0.211666 0.973666,-0.677333 0.465666,-0.465666 0.592666,-1.100665 -0.719666,-0.931333 -1.735665,-1.523999 -1.015999,-0.635 -2.031999,-0.592667 -1.650998,0.04233 -2.455331,0.762 -0.804333,0.677333 -0.846666,1.608665 -0.04233,1.058333 0.423333,1.989665 0.465666,0.889 0.465666,2.074332 0,0.804333 -0.719666,1.396999 -0.719666,0.592666 -1.650999,0.592666 -0.423333,0 -0.931332,-0.169333 -0.465667,-0.211666 -0.677333,-0.677333 0.338666,0 0.677333,0.127 0.338666,0.127 0.634999,0.127 0.211667,0 0.338667,-0.380999 0.126999,-0.423334 0.126999,-0.635 0,-0.931333 -0.465666,-1.862665 -0.465666,-0.973666 -0.423333,-1.904999 0.04233,-1.608665 1.354666,-2.751664 1.312332,-1.143 3.640664,-1.143 1.142999,0 2.285998,0.592667 1.142999,0.592666 2.074332,1.566332 v -0.127 q 0,-0.888999 -0.550333,-1.650999 -0.550333,-0.804333 -1.396999,-1.396999 -0.804333,-0.592666 -1.777999,-0.931332 -0.973666,-0.338667 -1.862665,-0.296334 -1.142999,0.04233 -2.412998,0.465667 -1.227666,0.380999 -2.370665,1.100666 -1.142999,0.677332 -2.116665,1.608665 -0.931333,0.888999 -1.481666,1.947332 -0.127,0.338666 -0.254,0.677333 -0.08467,0.338666 -0.169333,0.634999 1.100666,-1.904998 2.878665,-1.989665 0.338666,0 0.804332,0.296333 0.465667,0.296333 0.211667,0.804333 -0.169333,0.338666 -0.677333,0.04233 -0.465666,-0.296333 -0.846666,-0.254 -0.169333,0 0,0.338667 0.169333,0.338666 0,0.338666 -0.592666,0.04233 -1.354666,0.592666 -0.761999,0.508 -1.185332,1.650999 v 0.211667 q 0,0 0.211667,-0.169333 0.253999,-0.169334 0.550332,-0.381 0.296334,-0.254 0.550333,-0.465667 0.296334,-0.253999 0.338667,-0.338666 0.04233,0.465666 0.211666,0.931333 0.169334,0.465666 0,0.888999 -0.169333,0.635 -0.507999,0.931333 -0.296333,0.253999 -0.508,0.507999 -0.211666,0.254 -0.211666,0.635 0.04233,0.381 0.550332,1.185332 z M 57.948989,28.050167 v 0.127 q 0,0.169333 0.550333,-0.04233 0.550333,-0.254 1.015999,-0.465667 0.465666,-0.253999 0.550333,-0.296333 -0.338667,-0.888999 -0.338667,-1.777998 0,-0.635 0.296333,-1.354666 0.296334,-0.761999 0.762,-1.227666 -0.381,-0.761999 -1.142999,-1.312332 -0.762,-0.592666 -1.904999,-0.762 l 0.338667,-0.296333 q 0.761999,0 1.269999,0.296333 0.507999,0.296334 0.888999,0.677333 0.423333,0.338667 0.761999,0.635 0.381,0.254 0.846666,0.254 0.846666,0 1.650999,0.677332 -2.031998,0.169334 -1.989665,1.439333 0,0.550333 0.846666,1.142999 0.846666,0.592666 2.074332,1.142999 0.381,-0.719666 0.592666,-1.439332 0.254,-0.762 0.254,-1.566332 0,-1.354666 -0.635,-2.582332 -0.634999,-1.227666 -1.650998,-2.158998 -1.016,-0.931333 -2.285999,-1.439333 -1.227665,-0.550332 -2.412998,-0.550332 -1.566332,0 -2.709331,0.550332 -1.100666,0.550333 -1.820332,1.396999 -0.677333,0.804333 -1.015999,1.862666 -0.296334,1.058332 -0.296334,2.074331 0.04233,1.227666 0.719667,2.328332 0.677332,1.058333 1.650998,1.735665 -0.04233,-0.465666 -0.08467,-0.973665 -0.04233,-0.508 -0.08467,-0.973666 0,-0.719667 0.423333,-1.481666 0.465666,-0.804333 1.142999,-1.227666 0.677333,-0.465666 1.481666,-0.423333 0.846666,0.04233 1.608665,0.931333 -1.058332,-0.254 -1.523999,0.08467 -0.465666,0.338667 -0.465666,0.804333 -0.04233,1.058333 0.254,2.116665 0.338666,1.016 0.381,2.074332 z m -10.837326,3.555997 q 0.973666,-0.423333 2.285999,-0.677332 1.312332,-0.254 2.497665,-0.550333 1.227665,-0.296333 2.074331,-0.762 0.846666,-0.507999 0.889,-1.354665 v -0.465667 q -1.185333,-0.761999 -2.031999,-1.989665 -0.804333,-1.269999 -0.846666,-2.751665 -0.04233,-1.100665 0.381,-2.201331 0.423333,-1.142999 1.227666,-2.031999 0.804332,-0.931332 1.947331,-1.481665 1.143,-0.592666 2.539999,-0.592666 1.312332,0 2.666998,0.423333 1.354665,0.423333 2.455331,1.354665 1.142999,0.889 1.820332,2.285999 0.719666,1.354665 0.719666,3.21733 0,1.777999 -0.634999,3.174998 1.100665,0.465666 2.243665,0.888999 1.185332,0.423333 2.074331,0.846666 0.719667,-0.761999 1.185333,-1.777998 0.465666,-1.015999 0.423333,-1.947332 -0.04233,-0.719666 -0.254,-1.439332 -0.169333,-0.762 -0.169333,-1.481666 0,-0.508 0.296333,-0.888999 0.338666,-0.423333 0.888999,-0.465667 0.804333,0 0.804333,0.169334 0.04233,0.127 -0.254,0.380999 -0.296333,0.254 -0.677333,0.550333 -0.380999,0.296333 -0.380999,0.592666 0,0.677333 0.169333,1.396999 0.211666,0.677333 0.254,1.354666 0.04233,0.762 -0.423333,1.904999 -0.465667,1.100665 -1.227666,1.989665 2.285998,1.142999 3.132664,2.793998 0.846666,1.650998 0.889,3.640664 0.931332,-0.465667 1.820332,-0.931333 0.931332,-0.465666 1.650998,-0.973666 0.762,-0.508 1.227666,-1.058332 0.465666,-0.550333 0.465666,-1.143 0,-0.296333 -0.211666,-0.592666 -0.169333,-0.296333 -0.465666,-0.296333 -0.169334,0 -0.296334,0.127 -0.126999,0.127 -0.338666,0.08467 -0.169333,-0.04233 -0.465666,-0.127 -0.254,-0.08467 -0.211667,-0.296333 0.08467,-0.846666 0.508,-1.016 0.423333,-0.211666 0.888999,0.04233 0.465666,0.211666 0.846666,0.719666 0.423333,0.465666 0.423333,0.973666 0,1.693332 -1.439332,2.878664 -1.396999,1.142999 -3.217331,1.820332 1.481666,0.254 2.836331,1.185333 1.354666,0.931332 1.354666,2.412998 0,0.423333 -0.211667,0.931332 -0.211666,0.465667 -0.719666,0.465667 -0.804333,0 -0.888999,-0.296333 -0.04233,-0.296333 0.211666,-0.635 0.254,-0.381 0.592667,-0.677333 0.380999,-0.338666 0.380999,-0.423333 0,-0.465666 -0.465666,-0.888999 -0.423333,-0.423333 -1.100666,-0.761999 -0.677333,-0.338667 -1.481665,-0.550333 -0.762,-0.211667 -1.396999,-0.211667 -0.04233,0 -0.381,0.08467 -0.211667,1.312332 -1.227666,2.412998 -1.015999,1.058332 -2.624664,1.058332 -1.185333,0 -1.904999,0.719667 -0.719666,0.719666 -1.523999,1.735665 3.259664,0.508 5.545663,1.947332 2.328331,1.439332 3.809997,3.471331 1.481665,1.989665 2.201331,4.402663 0.719667,2.370665 0.762,4.783663 0.04233,3.174998 -1.354666,6.222995 -1.354665,3.005665 -3.809997,5.37633 -2.412998,2.370664 -5.714996,3.809997 -3.259664,1.439332 -7.069661,1.439332 -1.862665,0 -3.894664,-0.04233 -1.989665,-0.04233 -4.063997,-0.338667 -2.031998,-0.296333 -4.063997,-0.973666 -2.031998,-0.677333 -3.936997,-1.947332 -3.047997,-1.989665 -5.926662,-4.23333 -2.836331,-2.285998 -5.291663,-4.190997 -2.455331,-1.904998 -4.402663,-3.174997 -1.904999,-1.269999 -3.090331,-1.269999 -0.465666,0 -0.888999,0.127 2.709331,2.412998 5.630329,4.698996 2.920998,2.243665 5.926662,4.444997 0.296333,-0.423333 0.761999,-0.423333 0.677333,0 1.269999,0.465666 l -0.634999,0.211667 q 0.04233,0 -0.211667,-0.08467 -0.253999,-0.127 -0.253999,-0.127 -0.381,0 -0.169334,0.296333 0.254,0.296333 0.719667,0.677333 0.465666,0.381 0.973666,0.761999 0.550332,0.381 0.761999,0.550333 1.735665,1.269999 3.471331,2.243665 1.777998,0.973666 3.767663,1.650999 2.031999,0.719666 4.360331,1.100666 2.328331,0.381 5.249329,0.465666 1.693332,-0.211666 3.767664,-0.423333 2.074332,-0.211666 4.61433,-0.465666 l 0.211666,0.677333 q -0.804333,0.338666 -2.793998,0.465666 -1.947332,0.169333 -4.190997,0.338667 l -0.126999,0.08467 q -0.211667,0.127 -0.804333,0.08467 -0.592666,-0.04233 -0.846666,-0.04233 -1.693332,0.169334 -3.259664,0.465667 -1.566333,0.296333 -2.709332,0.761999 1.100666,0.169333 2.116665,0.211667 1.016,0.04233 1.947332,0.04233 2.878665,-0.04233 5.418663,-0.719666 2.582331,-0.635 5.291662,-1.481666 l -0.04233,0.677333 q -2.666998,0.804333 -5.503329,1.608666 -2.793998,0.804332 -5.757329,0.804332 -2.201332,0 -4.74133,-0.380999 -0.719666,0.634999 -0.804333,1.481665 -0.08467,0.846666 0.296334,1.608666 0.423333,0.804332 1.185332,1.354665 0.761999,0.592666 1.735665,0.592666 0.931333,0 2.031999,-0.465666 1.142999,-0.423333 1.142999,-1.312332 0,-0.211667 -0.08467,-0.465667 -0.08467,-0.211666 -0.169333,-0.423333 l 0.677333,-0.634999 q 0.211667,0.254 0.338666,0.677333 0.127,0.465666 0.127,0.804332 0,0.465667 -0.423333,0.931333 -0.423333,0.465666 -1.058332,0.804333 -0.592666,0.338666 -1.312333,0.550333 -0.719666,0.211666 -1.312332,0.211666 -1.142999,0 -1.904999,-0.423333 -0.719666,-0.423333 -1.185332,-1.100666 -0.465666,-0.634999 -0.634999,-1.439332 -0.169334,-0.761999 -0.169334,-1.481665 0,-0.931333 0.423333,-1.481666 -2.201331,-0.423333 -4.402663,-1.185332 -2.158998,-0.719666 -3.894664,-1.777999 -1.735665,-1.058333 -2.793998,-2.455332 -1.058332,-1.354665 -1.058332,-3.047997 0,-0.423333 0.211666,-1.142999 -1.227665,-0.973666 -2.455331,-1.904999 -1.185333,-0.931333 -2.412998,-1.862665 -0.465667,0.169333 -0.973666,0.423333 -0.465667,0.254 -1.058333,0.254 -0.846666,0 -1.058332,-0.254 -0.211667,-0.254 -0.169334,-0.508 0.04233,-0.296333 0.08467,-0.550333 0.08467,-0.254 -0.211666,-0.254 -0.550333,0 -0.762,0.127 -0.169333,0.08467 -0.169333,0.254 0,0.169333 0.04233,0.381 0.08467,0.211666 0.04233,0.381 -0.04233,0.169333 -0.253999,0.296333 -0.211667,0.08467 -0.465667,0.127 -0.211666,0 -0.423333,-0.127 -0.169333,-0.169334 -0.169333,-0.508 0.04233,-0.592666 0.296333,-1.058332 0.296333,-0.508 0.762,-0.508 0.846666,0 1.735665,0.254 0.888999,0.211666 1.735665,0.465666 -0.507999,-0.465666 -1.142999,-0.931333 -0.592666,-0.465666 -1.227665,-0.846666 -1.312333,-0.804332 -2.920998,-1.100665 -1.608666,-0.296334 -3.090331,-0.338667 -0.846666,0.973666 -1.396999,2.243665 -0.508,1.227666 -0.508,2.539998 0,0.973666 0.465666,2.031999 0.508,-0.169334 0.889,-0.550333 0.380999,-0.381 0.380999,-0.635 0,-0.423333 -0.338666,-0.592666 -0.296333,-0.169333 -0.296333,-0.550333 0,-0.211666 0.169333,-0.423333 0.169333,-0.254 0.381,-0.254 0.465666,0 0.846666,0.423333 0.381,0.381 0.381,0.931333 0,0.719666 -0.592667,1.396999 -0.592666,0.677333 -1.354665,1.015999 0.719666,0.973666 1.693332,0.888999 0.888999,-0.04233 1.650999,-0.465666 0.804332,-0.423333 1.650998,-0.888999 0.846666,-0.508 1.820332,-0.889 1.016,-0.423333 2.328332,-0.423333 0.677333,0 1.481665,0.381 0.804333,0.338667 1.439333,0.888999 0.677333,0.550333 1.058332,1.185333 0.423333,0.592666 0.338667,1.100666 l -0.889,-0.423333 q 0.04233,-0.211667 -0.211666,-0.423333 -0.254,-0.254 -0.465667,-0.254 -0.888999,0 -1.735665,0.465666 -0.846666,0.465667 -1.693332,1.015999 -0.804333,0.550333 -1.650999,0.973666 -0.846666,0.465667 -1.777998,0.423333 -2.201332,-0.08467 -3.936997,-1.015999 -1.693332,-0.931332 -2.539999,-2.370665 -0.592666,-0.127 -1.142999,-0.550333 -0.507999,-0.423333 -0.888999,-0.973666 -0.381,-0.592666 -0.592666,-1.227665 -0.211667,-0.635 -0.211667,-1.185333 0,-0.973666 0.423333,-1.820332 0.381,-0.846666 1.016,-1.481665 0.634999,-0.635 1.396998,-0.973666 0.804333,-0.381 1.608666,-0.381 h 0.04233 q 0.08467,0 0.338667,-0.211666 0.253999,-0.211667 0.550333,-0.508 0.296333,-0.296333 0.550333,-0.508 0.296333,-0.253999 0.380999,-0.338666 -1.142999,-0.592666 -2.539998,-1.396999 -1.396999,-0.804333 -2.539998,-0.804333 -0.677333,0 -0.888999,0.127 -0.211667,0.08467 -0.169334,0.254 0.04233,0.127 0.169334,0.338666 0.127,0.169334 0.08467,0.338667 -0.04233,0.507999 -0.592666,0.507999 -0.423333,0 -0.677333,-0.296333 -0.254,-0.338666 -0.254,-0.634999 0,-0.719666 0.804333,-0.889 0.762,-0.169333 1.608666,-0.169333 0.465666,0 0.973666,0.08467 0.507999,0.08467 0.973666,0.211666 -1.650999,-0.973666 -3.555998,-1.608665 -1.904998,-0.677333 -3.72533,-0.677333 -1.650999,0 -2.836332,0.508 -1.185332,0.507999 -1.9896647,1.312332 -0.8043328,0.761999 -1.1853325,1.735665 -0.3809997,0.973666 -0.3809997,1.947332 0,0.804333 0.3386664,1.650999 0.2963331,0.804333 0.8889994,1.481666 0.5926662,0.677332 1.4816655,1.100665 0.8889996,0.423333 2.0319986,0.423333 1.269999,0 2.031998,-0.338666 0.762,-0.338666 1.185333,-0.846666 0.423333,-0.550333 0.550333,-1.142999 0.127,-0.635 0.127,-1.185333 0,-0.465666 -0.169334,-1.015999 -0.211666,-0.550333 -0.550333,-1.015999 -0.380999,-0.465666 -0.846666,-0.761999 -0.507999,-0.338667 -1.100665,-0.338667 -0.677333,0 -1.312333,0.635 -0.677333,0.634999 -0.677333,1.396999 0,0.296333 0.127,0.592666 0.08467,0.296333 0.08467,0.592666 0,0.169333 -0.127,0.423333 -0.169333,0.254 -0.296333,0.465666 -0.169333,0.169334 -0.296333,0.211667 -0.169333,0 -0.169333,-0.254 0,-0.254 0.127,-0.254 0.126999,-0.04233 0.126999,-0.296333 0,-0.296333 -0.211666,-0.761999 -0.2539999,-0.465667 -0.2539999,-0.762 0,-1.312332 0.8466659,-1.947332 0.846666,-0.634999 1.735666,-0.677332 0.634999,0 1.312332,0.338666 0.634999,0.296333 1.142999,0.846666 0.508,0.550333 0.846666,1.227666 0.338666,0.634999 0.338666,1.269999 0,0.550333 -0.211666,1.312332 -0.254,0.719666 -0.719666,1.396999 -0.465667,0.677333 -1.185333,1.142999 -0.719666,0.423333 -1.650998,0.423333 -1.777999,0 -2.9633315,-0.465666 -1.2276657,-0.465666 -1.9473319,-1.185332 -0.7196661,-0.762 -1.0159992,-1.735666 -0.2963331,-0.973666 -0.2963331,-2.031998 0,-1.185333 0.5079996,-2.328332 0.4656663,-1.142999 1.3546657,-2.031998 0.846666,-0.889 2.1166654,-1.396999 1.227665,-0.550333 2.751664,-0.550333 1.566332,0 3.174998,0.423333 1.608665,0.423333 3.132664,1.100666 1.523999,0.677332 2.878665,1.566332 1.396999,0.888999 2.539998,1.862665 0.761999,-0.338666 1.566332,-0.550333 0.846666,-0.211666 1.693332,-0.211666 2.709331,-0.04233 5.376329,0.973666 2.666998,0.973665 5.164663,2.582331 2.497665,1.608665 4.825996,3.640664 2.328332,2.031998 4.36033,4.10633 2.666998,2.709331 5.75733,3.767664 3.132664,1.100666 6.688661,1.100666 6.773328,-0.04233 10.413992,-4.529663 3.640664,-4.529664 3.513664,-12.530658 -0.04233,-1.735665 -0.677332,-3.47133 -0.635,-1.777999 -1.820332,-3.217331 -1.185333,-1.481666 -2.920998,-2.455332 -1.693332,-1.015999 -3.894664,-1.227666 -0.761999,0.931333 -1.566332,1.862666 -0.762,0.931332 -1.481666,1.820332 0.719666,-0.381 1.481666,-0.719666 0.761999,-0.338667 1.566332,-0.338667 1.100666,0 1.650999,0.719666 0.592666,0.719666 0.592666,1.439332 0,0.296334 -0.169333,0.592667 -0.169333,0.253999 -0.719666,0.338666 0.211666,-0.719666 -0.04233,-1.481665 -0.253999,-0.762 -1.439332,-0.719667 -1.142999,0.04233 -2.158998,0.719667 -0.973666,0.634999 -2.031999,1.100665 -0.254,0.254 -0.254,0.677333 0.04233,0.381 0.169334,0.846666 0.127,0.465667 0.253999,1.015999 0.169334,0.550333 0.169334,1.100666 -0.04233,2.878665 -1.396999,4.86833 -1.354666,1.989665 -3.555998,2.666998 2.116665,1.862665 4.402664,1.862665 1.185332,0 2.285998,-0.592666 1.142999,-0.592666 1.142999,-1.862665 0,-1.100666 -0.507999,-2.158999 -0.465667,-1.100665 -0.381,-2.201331 0.04233,-1.016 0.507999,-1.947332 0.508,-0.931333 1.227666,-1.481666 0.762,-0.550333 1.650999,-0.550333 0.888999,-0.04233 1.735665,0.804333 -0.719666,0.169333 -1.354665,0.254 -0.635,0.04233 -0.635,0.846666 0,1.058332 0.296333,2.031998 0.338667,0.931333 0.338667,1.904999 0,1.820332 -0.508,3.005664 -0.508,1.185333 -1.354666,1.862666 -0.846666,0.677332 -1.947331,0.931332 -1.058333,0.254 -2.201332,0.254 -1.312332,0 -3.174998,-0.592666 -1.820332,-0.635 -3.259664,-2.074332 h -0.169333 q -0.804333,0 -1.693332,-0.423333 -0.846666,-0.423333 -1.566332,-1.100666 -0.719667,-0.719666 -1.185333,-1.523999 -0.423333,-0.846666 -0.423333,-1.650998 0,-0.508 0.296333,-0.973666 0.338667,-0.465667 0.338667,-0.973666 0,-0.296333 -0.08467,-0.635 -0.08467,-0.338666 -0.127,-0.677333 0.762,0.127 0.846666,0.592667 0.08467,0.423333 -0.08467,1.058332 -0.169334,0.592666 -0.423333,1.227666 -0.211667,0.634999 -0.127,1.100666 0.08467,0.423333 0.423333,0.931332 0.380999,0.508 0.888999,0.973666 0.550333,0.423333 1.142999,0.762 0.635,0.296333 1.185333,0.380999 -0.635,-0.846666 -1.016,-1.947331 -0.380999,-1.100666 -0.380999,-2.455332 0,-0.846666 0.04233,-1.608665 0.08467,-0.804333 0.254,-1.481666 -3.344331,-0.127 -5.968996,-1.608665 -0.211666,0.380999 -0.04233,0.677332 0.169333,0.254 0.550333,0.465667 0.381,0.169333 0.804333,0.296333 0.465666,0.08467 0.804332,0.169333 l -0.296333,0.211667 q -1.058332,-0.127 -2.412998,-0.762 -0.846666,1.777999 -0.846666,3.386664 0,2.709332 1.142999,5.164663 1.142999,2.412998 3.005665,4.317997 -0.211667,-0.550333 -0.423333,-1.354666 -0.211667,-0.804333 -0.211667,-1.566332 0,-0.761999 0.254,-1.269999 0.296333,-0.550333 1.015999,-0.592666 0.296333,0 0.423333,0.380999 0.127,0.338667 0.127,0.508 0,0.08467 -0.211667,0.423333 -0.169333,0.338667 -0.253999,0.888999 -0.127,0.889 0.08467,1.820332 0.211667,0.889 0.423333,1.354666 0.254,0.423333 0.338667,0.169333 0.127,-0.296333 -0.169334,-1.777998 0.211667,-0.211667 0.677333,-0.296334 0.465667,-0.08467 0.889,0.296334 0.507999,0.423333 0.550333,0.804332 0.08467,0.381 -0.08467,0.762 -0.169333,0.338666 -0.465666,0.761999 -0.296333,0.381 -0.508,0.804333 1.947332,1.354666 4.148664,2.116665 2.201331,0.761999 4.317996,0.761999 6.095996,-0.04233 9.35566,-3.85233 3.259664,-3.809997 3.259664,-10.371659 h 0.635 q 0,3.852331 -0.931333,6.646328 -0.888999,2.793998 -2.624665,4.61433 -1.693332,1.820332 -4.10633,2.709332 -2.412998,0.888999 -5.333996,0.888999 -2.539998,0 -4.995329,-0.888999 -2.455332,-0.846666 -4.783664,-2.328332 -2.751664,-1.735665 -4.868329,-4.275663 -2.074332,-2.539999 -3.979331,-5.37633 -0.719666,-1.058332 -1.523998,-2.074331 -0.804333,-1.058333 -1.650999,-1.862666 -0.846666,-0.846666 -1.735666,-1.312332 -0.888999,-0.508 -1.777998,-0.508 -0.635,0 -1.354666,0.465667 -0.677333,0.423333 -0.677333,1.100665 0,0.169334 -0.08467,0.423333 -0.08467,0.254 -0.296333,0.254 -0.550333,-0.04233 -0.635,-0.296333 -0.04233,-0.296333 -0.04233,-0.592666 0,-0.423333 0.296333,-0.804333 0.296333,-0.381 0.719666,-0.634999 0.465666,-0.296333 0.973666,-0.465667 0.508,-0.169333 0.931333,-0.169333 0.973666,0.04233 1.947331,0.550333 0.973666,0.508 1.989666,1.439332 -1.947332,-2.920997 -3.979331,-4.868329 -1.989665,-1.947332 -4.529663,-1.947332 -1.396999,0 -1.989665,0.677333 -0.550333,0.634999 -0.804333,1.439332 -0.254,0.804333 -0.465666,1.481665 -0.211667,0.635 -0.846666,0.635 -0.296333,0 -0.508,-0.169333 -0.211666,-0.211667 -0.465666,-0.423333 -0.211667,-0.254 -0.423333,-0.465667 -0.211667,-0.211666 -0.508,-0.253999 -0.380999,-0.04233 -0.761999,0 -0.381,0.04233 -0.423333,0.423333 h -0.465667 q -0.126999,-1.566333 1.143,-1.566333 0.550333,0 0.846666,0.169334 0.338666,0.169333 0.550333,0.380999 0.253999,0.211667 0.465666,0.423333 0.211666,0.169334 0.550333,0.169334 0.254,0 0.211666,-0.592667 0,-0.592666 0.211667,-1.269999 0.254,-0.677333 0.973666,-1.227665 0.719666,-0.550333 2.497665,-0.465667 2.243665,0.08467 4.063996,1.439333 1.820332,1.354665 3.555998,3.47133 1.735665,2.074332 3.513664,4.74133 1.820332,2.624665 3.97933,5.291663 -0.465666,-1.185333 -0.761999,-2.455332 -0.296333,-1.269999 -0.296333,-2.666998 0,-0.931332 0.296333,-1.904998 0.296333,-1.016 0.761999,-1.947332 -1.312332,-0.677333 -2.666998,-1.820332 -1.312332,-1.142999 -2.412998,-2.666998 -1.058333,-1.523999 -1.735665,-3.386664 -0.677333,-1.862666 -0.677333,-4.021664 v -0.169333 q 0,-0.381 -0.169333,-0.846666 -0.169334,-0.465667 -0.254,-0.846666 -0.04233,-0.254 -0.338667,-0.508 -0.296333,-0.254 -0.592666,-0.465666 -0.296333,-0.254 -0.507999,-0.465666 -0.211667,-0.254 -0.127,-0.550333 0.04233,-0.127 0.211666,-0.08467 0.211667,0 0.423333,0.04233 0.211667,0 0.338667,0 0.169333,-0.04233 0.169333,-0.169333 -0.04233,-0.381 -0.508,-0.465666 -0.465666,-0.08467 -0.634999,-0.423333 -0.254,-0.423333 0.08467,-0.677333 0.338667,-0.296333 0.169333,-0.423333 -0.211666,-0.169333 -0.380999,-0.08467 -0.127,0.08467 -0.254,0.254 -0.127,0.169333 -0.254,0.338667 -0.08467,0.169333 -0.254,0.169333 -0.592666,-0.08467 -0.761999,-0.338667 -0.169333,-0.296333 -0.08467,-0.592666 0.127,-0.338666 0.423333,-0.592666 0.296333,-0.254 0.592667,-0.254 0.804332,0 1.269999,0.508 0.465666,0.507999 0.761999,1.312332 0.296333,0.804333 0.465666,1.820332 0.169334,0.973666 0.338667,1.947332 0.296333,-2.116665 1.312332,-4.23333 1.015999,-2.116665 2.539998,-3.809997 1.523999,-1.693332 3.428998,-2.751665 1.947331,-1.100666 4.021663,-1.100666 0.592666,0 1.185333,0.254 0.592666,0.211666 1.142999,0.508 L 50.667661,28.7275 q -0.465667,-0.338667 -0.931333,-0.592666 -0.423333,-0.296333 -0.973666,-0.296333 -2.074332,0.04233 -3.97933,1.227665 -1.862665,1.185333 -3.301998,3.005665 -1.396999,1.820332 -2.243665,4.021663 -0.804332,2.158999 -0.761999,4.190997 0.04233,1.904999 0.550333,3.640664 0.550333,1.735666 1.439332,3.259664 0.931333,1.481666 2.116665,2.709332 1.185333,1.185332 2.497665,2.031998 0.08467,-0.169333 0.169333,-0.296333 0.127,-0.127 0.211667,-0.296333 -2.582332,-1.608666 -4.148664,-4.148664 -1.566332,-2.539998 -1.523999,-5.291662 0,-2.582332 0.550333,-4.275664 0.592666,-1.693332 1.566332,-2.793998 0.973666,-1.142999 2.285999,-1.862665 1.354665,-0.719666 2.920997,-1.354666 z m 20.150652,0.423333 q -0.677333,-0.423333 -1.227666,-0.592666 -2.074332,0.592666 -4.23333,0.719666 -2.158998,0.127 -4.190997,0.677333 -1.312332,0.381 -2.836331,0.846666 -1.523999,0.465666 -2.666998,1.100666 0.592666,-0.296333 1.481666,-0.381 0.888999,-0.08467 1.608665,-0.127 0.973666,-0.04233 2.074332,0.381 1.142999,0.381 2.074332,1.058333 0.931332,0.677332 1.523998,1.608665 0.635,0.888999 0.635,1.862665 v 0.550333 q 0.338666,0.423333 0.508,0.889 0.211666,0.465666 0.423333,0.804332 0.211666,0.338667 0.507999,0.592667 0.338667,0.211666 0.973666,0.211666 0.465667,0 0.846666,0.04233 0.423333,0 0.846666,0.04233 0.677333,-0.719666 1.312333,-1.396999 0.677332,-0.677333 1.312332,-1.269999 -0.804333,-0.381 -1.354666,-0.931333 -0.507999,-0.592666 -0.931332,-1.100666 -0.381,-0.550333 -0.719666,-0.931332 -0.296334,-0.423333 -0.677333,-0.423333 -0.127,0 -0.169333,0.169333 0,0.169333 0,0.380999 0,0.211667 -0.04233,0.381 -0.04233,0.169333 -0.169333,0.169333 -0.465666,0 -0.592666,-0.380999 -0.127,-0.381 0.04233,-0.846666 0.211667,-0.465667 0.719666,-0.846666 0.508,-0.381 1.312333,-0.381 0.761999,0 1.354665,0.381 0.592666,0.338666 1.058333,0.804332 0.507999,0.465667 0.931332,1.016 0.465667,0.550333 0.973666,0.931332 0.677333,-0.592666 1.354666,-1.015999 0.677333,-0.423333 1.269999,-0.719666 v -0.381 q 0,-0.634999 -0.550333,-1.142999 -0.508,-0.550333 -1.312332,-1.015999 -0.804333,-0.465667 -1.735666,-0.889 -0.931332,-0.423333 -1.735665,-0.846666 z m -4.444997,-1.989665 q -0.507999,0.423333 -1.100665,0.846666 -0.592667,0.381 -1.27,0.719666 1.058333,-0.169333 2.158999,-0.296333 1.100666,-0.127 2.158998,-0.338666 -0.507999,-0.211667 -1.015999,-0.423333 -0.465666,-0.254 -0.931333,-0.508 z m 8.678327,8.635994 q 0.465666,0 0.677333,-0.465667 0.254,-0.507999 0.338666,-1.100665 -0.888999,0.507999 -1.862665,1.354665 0.508,0.211667 0.846666,0.211667 z m -8.21266,6.222995 h -0.423333 q -0.169334,0.931333 0.04233,0.635 0.211666,-0.338667 0.508,-0.635 z M 19.383351,65.303472 q 0,-1.439332 0.423333,-2.793997 0.423333,-1.354666 1.142999,-2.455332 -1.227666,0.338666 -2.285998,1.312332 -1.058333,0.931333 -1.058333,2.285999 0,0.973666 0.592667,1.862665 0.550332,0.888999 1.396998,1.227666 -0.211666,-0.635 -0.211666,-1.439333 z m 4.952996,-6.942661 q -0.296333,0.169333 -0.592666,0.381 -0.254,0.211666 -0.550333,0.423333 0.804333,0.08467 1.608666,0.254 0.846666,0.169333 1.650998,0.465666 -0.507999,-0.381 -1.058332,-0.762 -0.508,-0.380999 -1.058333,-0.761999 z m 28.744312,-2.370665 q 0.04233,1.439332 0.550333,2.624665 0.508,1.185332 1.312332,2.116665 3.386664,-0.719666 4.444997,-4.063997 -0.592666,0.719666 -1.227666,1.481665 -0.592666,0.719667 -1.481665,0.719667 -0.550333,0 -1.227666,-0.254 -0.635,-0.254 -0.592666,-0.973666 0,-0.635 0.211666,-0.592666 0.211667,0 0.508,0.338666 0.296333,0.296333 0.550333,0.677333 0.254,0.338666 0.380999,0.338666 0.465667,-0.04233 0.508,-0.465666 0.04233,-0.423333 0.296333,-0.635 0.465666,-0.338666 1.100666,-0.719666 0.635,-0.423333 1.185332,-0.846666 -0.465666,0.04233 -0.888999,0.296333 -0.423333,0.211667 -0.888999,-0.04233 -0.254,-0.127 -0.254,-0.254 0.04233,-0.169333 0.127,-0.338666 0.127,-0.169333 0.211666,-0.338667 0.127,-0.169333 0.04233,-0.380999 -0.169334,-0.296333 0.211666,-0.592666 0.381,-0.296334 0.719666,-0.296334 0.550333,0 0.677333,-0.296333 0.169333,-0.296333 0.08467,-0.677333 -0.08467,-0.380999 -0.296333,-0.804332 -0.211667,-0.423333 -0.338667,-0.677333 -1.269999,0.888999 -2.751664,1.396999 -1.481666,0.507999 -2.963331,0.592666 -0.254,1.439332 -0.211667,2.666998 z m -0.423333,-4.86833 q 0.296333,-0.931332 0.719666,-1.735665 0.465666,-0.846666 0.973666,-1.608665 -0.846666,-0.211667 -1.439332,-0.211667 -1.312333,0 -2.497665,0.508 -1.142999,0.465666 -2.158998,1.269999 0.888999,0.634999 1.989665,1.100666 1.100666,0.465666 2.412998,0.677332 z m 2.582331,0.211667 q 1.735666,0 3.217331,-0.762 -1.142999,-1.396998 -2.751664,-2.243664 -1.142999,1.269999 -1.820332,2.963331 0.338666,0.04233 0.677333,0.04233 0.338666,0 0.677332,0 z m 6.773329,-6.349995 q -1.566333,0.211666 -3.090331,0.931332 -1.481666,0.677333 -2.666998,1.862666 0.888999,0.380999 1.650998,0.931332 0.804333,0.550333 1.396999,1.312333 0.550333,-0.550333 1.016,-1.227666 0.465666,-0.677333 0.973665,-1.312333 0.254,-0.550332 0.423334,-1.185332 0.169333,-0.634999 0.296333,-1.312332 z M 67.600981,73.4738 q 0.550333,0 0.931333,0.338666 0.381,0.381 0.381,0.846666 0,0.465666 -0.381,0.846666 -0.381,0.381 -0.931333,0.381 -0.550332,0 -0.931332,-0.381 -0.338667,-0.381 -0.338667,-0.846666 0,-0.465666 0.338667,-0.846666 0.381,-0.338666 0.931332,-0.338666 z m 0,0.677332 q -0.592666,0 -0.592666,0.550333 0,0.550333 0.592666,0.550333 0.592667,0 0.592667,-0.550333 0,-0.550333 -0.592667,-0.550333 z m 1.566333,0.381 -0.127,-0.804333 q 1.650998,-0.465666 3.174997,-1.227665 1.566332,-0.762 3.428998,-0.762 0.888999,0 1.904998,0.592666 1.058333,0.592667 1.058333,1.481666 0,0.719666 -0.423333,1.100666 -0.381,0.381 -0.846666,0.465666 -0.465667,0.127 -0.846666,-0.08467 -0.381,-0.169334 -0.338667,-0.635 0,-0.254 0.211667,-0.338666 0.211666,-0.08467 0.465666,-0.127 0.254,0 0.423333,-0.04233 0.211667,-0.04233 0.211667,-0.211666 0,-0.508 -0.804333,-0.804333 -0.761999,-0.296333 -1.354666,-0.296333 -1.608665,0 -3.174997,0.635 -1.523999,0.677332 -2.963331,1.058332 z M 68.99798,73.4738 68.574647,73.0928 q 1.396999,-0.592666 3.047998,-1.481666 1.693332,-0.888999 3.132664,-1.820332 1.439333,-0.931332 2.412999,-1.735665 0.973666,-0.804333 0.973666,-1.227666 0,-0.296333 -0.381,-0.550333 -0.338667,-0.253999 -0.296333,-0.550333 0.04233,-0.761999 0.380999,-1.015999 0.338667,-0.296333 0.635,-0.169333 0.338666,0.08467 0.550333,0.508 0.211666,0.380999 0.08467,0.973666 -0.169333,1.693332 -2.582331,3.59833 -2.412998,1.904999 -7.535328,3.852331 z m 1.820332,-15.493989 0.677333,0.211667 q 0.08467,2.709331 -0.846666,4.698996 -0.888999,1.947332 -2.412998,3.217331 -1.481666,1.269999 -3.386664,1.904999 -1.904999,0.592666 -3.767664,0.592666 -1.947332,0 -3.85233,-0.719666 -1.862666,-0.719666 -3.259665,-2.582332 l 0.211667,-0.465666 q 1.608665,1.735665 3.132664,2.328332 1.566332,0.550333 3.386664,0.550333 1.227666,0 2.878665,-0.296333 1.693332,-0.338667 3.259664,-1.354666 1.566332,-1.015999 2.709331,-2.920998 1.142999,-1.947332 1.269999,-5.164663 z M 49.566995,76.521797 q 1.269999,-0.719666 4.10633,-1.227665 Q 51.17566,74.955465 48.889662,74.193466 46.603664,73.4738 44.571665,72.5848 42.582,71.695801 40.973335,70.679802 39.364669,69.706136 38.22167,68.85947 q -0.254,-0.169333 -0.507999,-0.381 -0.211667,-0.211666 -0.465667,-0.381 -0.127,0.338667 -0.127,0.635 0.04233,1.523999 1.142999,2.751664 1.100666,1.27 2.878665,2.243665 1.777999,1.016 3.97933,1.693333 2.201332,0.719666 4.444997,1.100665 z m 34.37469,-25.018981 v 12.572991 l 0.338667,-0.08467 q -0.04233,-2.243665 0.127,-4.23333 0.169333,-1.989665 0.550333,-3.471331 0.423333,-1.481665 1.100665,-2.328331 0.677333,-0.889 1.693332,-0.889 0.169334,0.04233 0.338667,0.211667 0.169333,0.127 0.04233,0.677333 -1.142999,0.423333 -1.777999,0.973666 -0.592666,0.550332 -0.931332,1.608665 -0.296333,1.015999 -0.465666,2.793998 -0.127,1.735665 -0.338667,4.61433 l 0.381,-0.08467 q 0.338666,-0.08467 0.254,0.338667 -0.04233,0.423333 -0.169334,0.634999 -1.269999,0.719666 -2.031998,1.735665 -0.761999,1.016 -1.608665,2.201332 -1.27,0.08467 -1.27,-0.761999 v -17.82232 q -0.253999,-0.127 -0.550332,0.04233 -0.254,0.169333 -0.508,0.169333 -0.254,0 -0.296333,-0.338666 0,-0.338667 0.211666,-0.635 1.269999,-0.719666 2.031999,-1.735665 0.804333,-1.015999 1.608665,-2.201332 1.269999,-0.08467 1.269999,0.762 v 2.836331 q 0.296333,-0.465666 1.439333,-1.058333 1.185332,-0.592666 2.539998,-0.888999 0.296333,-0.719666 0.973666,-1.227666 0.677332,-0.507999 1.227665,-0.592666 0.508,0 0.889,0.381 0.423333,0.381 0.719666,0.931332 0.296333,0.508 0.465666,1.100666 0.211667,0.592667 0.296333,1.016 l 0.08467,-0.08467 q 1.058332,-1.566332 2.074332,-2.455332 1.015999,-0.888999 2.878664,-0.888999 1.100666,0 1.904999,0.465666 0.846666,0.423333 1.989666,0.423333 0.21167,0 0.55033,-0.253999 0.33867,-0.296333 0.67733,-0.550333 0.381,-0.254 0.635,-0.296333 0.254,-0.08467 0.33867,0.380999 -2.20133,2.158999 -3.34433,4.444997 -1.100666,2.243665 -1.100666,5.630329 0,3.894664 0.888996,5.968996 0.889,2.031998 2.794,3.047997 0.254,-0.127 0.59267,-0.338666 0.381,-0.211667 0.67733,-0.296333 0.33867,-0.127 0.46567,0 0.127,0.08467 -0.0847,0.634999 -0.67733,0.423333 -1.016,0.973666 -0.29633,0.508 -0.508,1.100666 -0.21167,0.550333 -0.46567,1.100666 -0.21166,0.550333 -0.71966,1.058332 -1.524,-0.126999 -2.582333,-1.142999 -1.015999,-1.058332 -1.693332,-2.497664 -0.634999,-1.439333 -0.931333,-3.047998 -0.296333,-1.650999 -0.296333,-2.963331 0,-2.836331 1.142999,-5.37633 1.143,-2.582331 2.836332,-4.995329 -0.762,0 -1.269999,-0.08467 -0.508,-0.08467 -0.973666,-0.211666 -0.423333,-0.127 -0.931333,-0.211667 -0.508,-0.127 -1.269999,-0.127 -1.566332,0 -2.370665,1.016 -0.804333,0.973665 -0.804333,2.201331 v 12.530657 l 0.338667,-0.08467 q -0.04233,-2.243665 0.127,-4.23333 0.169333,-1.989665 0.550333,-3.471331 0.423333,-1.481666 1.100665,-2.328332 0.677333,-0.888999 1.693333,-0.888999 0.169333,0.04233 0.338666,0.211667 0.169333,0.126999 0.04233,0.677332 -1.142999,0.423333 -1.777998,0.973666 -0.592667,0.550333 -0.931333,1.608666 -0.296333,1.015999 -0.465666,2.793998 -0.127,1.735665 -0.338667,4.61433 l 0.381,-0.08467 q 0.338666,-0.08467 0.254,0.338666 -0.04233,0.423333 -0.169333,0.635 -1.269999,0.719666 -2.031999,1.820332 -0.761999,1.100666 -1.566332,2.285998 -1.312332,0.04233 -1.312332,-0.931332 V 50.825483 q 0,-0.677333 -0.635,-1.523999 -0.634999,-0.846666 -1.439332,-0.677332 -0.931333,0.169333 -1.439332,0.380999 -0.508,0.211667 -0.762,0.550333 -0.254,0.338667 -0.381,0.804333 -0.126999,0.465666 -0.296333,1.142999 z m 16.128985,8.508994 q 0,-0.804333 0.33867,-1.354666 0.33867,-0.550333 0.889,-0.973666 0.42333,0 0.381,0.254 -0.0423,0.254 -0.254,0.634999 -0.21167,0.381 -0.46567,0.804333 -0.254,0.381 -0.254,0.635 0,0.465666 0.21167,1.058332 0.21167,0.550333 0.46567,1.058333 0.254,0.507999 0.42333,0.888999 0.16933,0.338667 0.0423,0.465666 -0.55033,-0.761999 -1.18533,-1.650998 -0.59267,-0.931333 -0.59267,-1.820332 z m 16.891,-4.444997 q 0,3.894664 0.889,5.968996 0.889,2.031998 2.794,3.047997 0.254,-0.127 0.59267,-0.338666 0.381,-0.211667 0.67733,-0.296333 0.33867,-0.127 0.46567,0 0.127,0.08467 -0.0847,0.634999 -0.67733,0.423333 -1.016,0.973666 -0.29633,0.508 -0.508,1.100666 -0.21167,0.550333 -0.46566,1.100666 -0.21167,0.550333 -0.71967,1.058332 -1.524,0 -2.75167,-1.269999 -1.18533,-1.269999 -1.86266,-3.217331 -0.635,0.254 -1.05833,0.762 -0.42334,0.508 -0.71967,1.142999 -0.29633,0.592666 -0.55033,1.269999 -0.254,0.677333 -0.635,1.269999 -1.10067,0 -2.286,-0.846666 -1.18533,-0.888999 -2.159,-2.285998 -0.93133,-1.439332 -1.56633,-3.217331 -0.59267,-1.777999 -0.59267,-3.598331 0,-1.227665 0.33867,-2.751664 0.33867,-1.523999 0.93133,-3.047998 0.635,-1.566332 1.48167,-3.005664 0.84666,-1.481666 1.905,-2.497665 0.71966,-0.719666 1.22766,-1.185333 0.55033,-0.507999 1.05833,-0.761999 0.55034,-0.296333 1.143,-0.381 0.635,-0.127 1.56634,-0.127 1.10066,0 2.11666,0.465667 1.05833,0.423333 2.20133,0.423333 0.254,0 0.508,-0.169334 0.29634,-0.169333 0.55034,-0.338666 0.12699,-0.338666 0.50799,-0.338666 0.381,-0.04233 0.46567,0.380999 -2.20133,2.158999 -3.34433,4.444997 -1.10067,2.243665 -1.10067,5.630329 z m -2.87866,3.598331 q 0,-2.836331 1.143,-5.503329 1.143,-2.666998 2.83633,-5.079997 -1.56633,0.04233 -3.13266,-0.296333 -1.524,-0.338666 -3.09034,-0.338666 -1.26999,0 -2.03199,0.804333 -0.71967,0.761999 -1.10067,1.904998 -0.381,1.142999 -0.508,2.455332 -0.127,1.312332 -0.127,2.370664 0,1.777999 0.46567,3.428998 0.46566,1.608665 1.18533,2.836331 0.762,1.185333 1.651,1.904999 0.889,0.719666 1.69333,0.719666 0.80433,0 1.73567,-0.592666 -0.71967,-2.285999 -0.71967,-4.61433 z m 3.76766,0.846666 q 0,-0.804333 0.33867,-1.354666 0.33867,-0.550333 0.889,-0.973666 0.42333,0 0.381,0.254 -0.0423,0.254 -0.254,0.634999 -0.21167,0.381 -0.46567,0.804333 -0.254,0.381 -0.254,0.635 0,0.465666 0.21167,1.058332 0.21167,0.550333 0.46567,1.058333 0.254,0.507999 0.42333,0.888999 0.16933,0.338667 0.0423,0.465666 -0.55033,-0.761999 -1.18533,-1.650998 -0.59267,-0.931333 -0.59267,-1.820332 z m -5.79966,3.217331 q -0.0847,0.127 -0.21167,0.253999 -1.35466,-1.227665 -2.03199,-2.878664 -0.635,-1.650999 -0.635,-3.301998 0,-0.507999 0.127,-1.142999 0.16933,-0.677333 0.508,-1.312332 0.33866,-0.635 0.889,-1.185332 0.55033,-0.550333 1.31233,-0.846667 0.59266,0.338667 0.71966,0.889 -1.48166,0.08467 -2.28599,1.481665 -0.80434,1.354666 -0.80434,3.259665 0,1.354665 0.71967,2.582331 0.71967,1.227666 1.69333,2.201332 z m 11.09132,4.741329 V 42.147156 q 0,-1.227665 -0.46567,-2.751664 -0.42333,-1.523999 -1.82033,-2.497665 l 0.16933,-0.338666 q 0.93133,0.127 2.159,1.100666 1.22767,0.931332 1.94733,2.878664 0.29633,-2.328332 1.35467,-4.063997 1.10066,-1.777999 2.79399,-2.709331 l -0.16933,0.804333 q -1.143,1.269999 -1.69333,2.920997 -0.508,1.650999 -0.508,3.513664 v 23.029316 l 0.33867,-0.08467 q -0.0423,-2.243665 -0.0423,-4.23333 0,-2.031999 0.16934,-3.513664 0.16933,-1.481666 0.55033,-2.370665 0.42333,-0.889 1.18533,-0.889 0.16933,0.04233 0.254,0.254 0.0847,0.169333 -0.0423,0.719666 -0.635,0.381 -1.016,1.016 -0.33867,0.592666 -0.508,1.735665 -0.127,1.142999 -0.16933,2.920998 -0.0423,1.735665 -0.0423,4.317996 l 0.381,-0.08467 q 0.33867,-0.04233 0.254,0.381 -0.0423,0.423333 -0.16933,0.592666 -1.27,0.719666 -2.032,1.735665 -0.762,1.015999 -1.60866,2.201332 -1.27,0.04233 -1.27,-0.762 z m 9.39799,0 V 42.147156 q 0,-1.227665 -0.46567,-2.751664 -0.42333,-1.523999 -1.82033,-2.497665 l 0.16934,-0.338666 q 0.93133,0.127 2.15899,1.100666 1.22767,0.931332 1.94734,2.878664 0.29633,-2.328332 1.35466,-4.063997 1.10067,-1.777999 2.794,-2.709331 l -0.16933,0.804333 q -1.143,1.269999 -1.69334,2.920997 -0.508,1.650999 -0.508,3.513664 v 23.029316 l 0.33867,-0.08467 q -0.0423,-2.243665 -0.0423,-4.23333 0,-2.031999 0.16933,-3.513664 0.16933,-1.481666 0.55033,-2.370665 0.42334,-0.889 1.18534,-0.889 0.16933,0.04233 0.254,0.254 0.0847,0.169333 -0.0423,0.719666 -0.635,0.381 -1.016,1.016 -0.33866,0.592666 -0.508,1.735665 -0.127,1.142999 -0.16933,2.920998 -0.0423,1.735665 -0.0423,4.317996 l 0.381,-0.08467 q 0.33866,-0.04233 0.254,0.381 -0.0423,0.423333 -0.16934,0.592666 -1.26999,0.719666 -2.03199,1.735665 -0.762,1.015999 -1.60867,2.201332 -1.27,0.04233 -1.27,-0.762 z m 50.50366,-21.081984 -0.42333,0.465667 q -0.635,-1.016 -1.10066,-2.158999 -0.46567,-1.142999 -0.46567,-2.751664 v -0.211667 q 0.0423,-3.090331 1.35466,-4.86833 0.381,-0.592666 0.889,-1.100665 0.508,-0.508 0.93134,-0.931333 0.46566,-0.465666 0.762,-0.846666 0.29633,-0.423333 0.29633,-0.719666 0,-0.211667 -0.127,-0.338667 -0.127,-0.127 -0.127,-0.253999 0,-0.169334 0.127,-0.296334 0.127,-0.169333 0.254,-0.169333 0.29633,-0.04233 0.508,0.127 0.254,0.169333 0.254,0.550333 0,0.804333 -0.29633,1.354666 1.56633,-0.804333 3.93699,-1.439333 2.37067,-0.677332 4.61433,-1.693332 0.84667,-0.423333 1.651,-0.888999 0.80433,-0.508 1.524,-1.100666 -1.27,-0.804332 -1.82033,-1.820332 -0.46567,0.423333 -1.05833,0.677333 -0.59267,0.254 -1.43934,0.254 -0.29633,0.677333 -1.05833,1.142999 -0.762,0.465666 -1.73567,0.804333 -0.97366,0.338666 -2.03199,0.634999 -1.016,0.254 -1.86267,0.508 -3.21733,0.973666 -5.03766,3.428997 -1.82033,2.455332 -1.82033,6.095996 0,2.074332 0.80433,4.063997 0.84667,1.947332 2.54,3.428997 1.016,-0.888999 2.11666,-1.396999 1.143,-0.550333 2.20133,-0.550333 0.67734,0 1.35467,0.08467 0.71967,0.04233 1.43933,0.254 1.43933,-1.947332 3.34433,-3.174998 1.94733,-1.269999 4.02167,-1.650999 -0.0847,-0.465666 -0.29634,-0.888999 -0.21166,-0.423333 -0.46566,-0.888999 -0.29634,0.931332 -0.97367,1.269999 -0.67733,0.338666 -1.60866,0.338666 -0.67734,0 -1.016,-0.423333 -0.33867,-0.423333 -0.42334,-0.888999 -0.0423,-0.508 0.127,-0.931333 0.21167,-0.423333 0.508,-0.423333 0.16934,0 0.42334,0.254 0.29633,0.211666 0.29633,0.423333 0,0.338666 -0.33867,0.465666 -0.33866,0.127 -0.33866,0.423333 0,0.550333 0.381,0.677333 0.42333,0.08467 0.93133,-0.127 0.508,-0.211666 0.97366,-0.677333 0.46567,-0.465666 0.59267,-1.100665 -0.71967,-0.931333 -1.73566,-1.523999 -1.016,-0.635 -2.032,-0.592667 -1.651,0.04233 -2.45533,0.762 -0.80434,0.677333 -0.84667,1.608665 -0.0423,1.058333 0.42333,1.989665 0.46567,0.889 0.46567,2.074332 0,0.804333 -0.71967,1.396999 -0.71966,0.592666 -1.651,0.592666 -0.42333,0 -0.93133,-0.169333 -0.46567,-0.211666 -0.67733,-0.677333 0.33866,0 0.67733,0.127 0.33867,0.127 0.635,0.127 0.21167,0 0.33867,-0.380999 0.127,-0.423334 0.127,-0.635 0,-0.931333 -0.46567,-1.862665 -0.46567,-0.973666 -0.42333,-1.904999 0.0423,-1.608665 1.35466,-2.751664 1.31234,-1.143 3.64067,-1.143 1.143,0 2.286,0.592667 1.14299,0.592666 2.07433,1.566332 v -0.127 q 0,-0.888999 -0.55034,-1.650999 -0.55033,-0.804333 -1.39699,-1.396999 -0.80434,-0.592666 -1.778,-0.931332 -0.97367,-0.338667 -1.86267,-0.296334 -1.143,0.04233 -2.413,0.465667 -1.22766,0.380999 -2.37066,1.100666 -1.143,0.677332 -2.11667,1.608665 -0.93133,0.888999 -1.48166,1.947332 -0.127,0.338666 -0.254,0.677333 -0.0847,0.338666 -0.16934,0.634999 1.10067,-1.904998 2.87867,-1.989665 0.33867,0 0.80433,0.296333 0.46567,0.296333 0.21167,0.804333 -0.16933,0.338666 -0.67733,0.04233 -0.46567,-0.296333 -0.84667,-0.254 -0.16933,0 0,0.338667 0.16933,0.338666 0,0.338666 -0.59267,0.04233 -1.35467,0.592666 -0.762,0.508 -1.18533,1.650999 v 0.211667 q 0,0 0.21167,-0.169333 0.254,-0.169334 0.55033,-0.381 0.29633,-0.254 0.55033,-0.465667 0.29634,-0.253999 0.33867,-0.338666 0.0423,0.465666 0.21167,0.931333 0.16933,0.465666 0,0.888999 -0.16934,0.635 -0.508,0.931333 -0.29634,0.253999 -0.508,0.507999 -0.21167,0.254 -0.21167,0.635 0.0423,0.381 0.55033,1.185332 z m 10.414,-18.838319 v 0.127 q 0,0.169333 0.55033,-0.04233 0.55033,-0.254 1.016,-0.465667 0.46566,-0.253999 0.55033,-0.296333 -0.33867,-0.888999 -0.33867,-1.777998 0,-0.635 0.29634,-1.354666 0.29633,-0.761999 0.762,-1.227666 -0.381,-0.761999 -1.143,-1.312332 -0.762,-0.592666 -1.905,-0.762 l 0.33867,-0.296333 q 0.762,0 1.27,0.296333 0.50799,0.296334 0.88899,0.677333 0.42334,0.338667 0.762,0.635 0.381,0.254 0.84667,0.254 0.84667,0 1.651,0.677332 -2.032,0.169334 -1.98967,1.439333 0,0.550333 0.84667,1.142999 0.84667,0.592666 2.07433,1.142999 0.381,-0.719666 0.59267,-1.439332 0.254,-0.762 0.254,-1.566332 0,-1.354666 -0.635,-2.582332 -0.635,-1.227666 -1.651,-2.158998 -1.016,-0.931333 -2.286,-1.439333 -1.22767,-0.550332 -2.413,-0.550332 -1.56633,0 -2.70933,0.550332 -1.10066,0.550333 -1.82033,1.396999 -0.67733,0.804333 -1.016,1.862666 -0.29633,1.058332 -0.29633,2.074331 0.0423,1.227666 0.71966,2.328332 0.67734,1.058333 1.651,1.735665 -0.0423,-0.465666 -0.0847,-0.973665 -0.0423,-0.508 -0.0847,-0.973666 0,-0.719667 0.42333,-1.481666 0.46567,-0.804333 1.143,-1.227666 0.67733,-0.465666 1.48167,-0.423333 0.84666,0.04233 1.60866,0.931333 -1.05833,-0.254 -1.524,0.08467 -0.46566,0.338667 -0.46566,0.804333 -0.0423,1.058333 0.254,2.116665 0.33866,1.016 0.381,2.074332 z m -10.83733,3.555997 q 0.97367,-0.423333 2.286,-0.677332 1.31233,-0.254 2.49766,-0.550333 1.22767,-0.296333 2.07434,-0.762 0.84666,-0.507999 0.889,-1.354665 v -0.465667 q -1.18534,-0.761999 -2.032,-1.989665 -0.80434,-1.269999 -0.84667,-2.751665 -0.0423,-1.100665 0.381,-2.201331 0.42333,-1.142999 1.22767,-2.031999 0.80433,-0.931332 1.94733,-1.481665 1.143,-0.592666 2.54,-0.592666 1.31233,0 2.66699,0.423333 1.35467,0.423333 2.45534,1.354665 1.14299,0.889 1.82033,2.285999 0.71966,1.354665 0.71966,3.21733 0,1.777999 -0.635,3.174998 1.10067,0.465666 2.24367,0.888999 1.18533,0.423333 2.07433,0.846666 0.71967,-0.761999 1.18533,-1.777998 0.46567,-1.015999 0.42334,-1.947332 -0.0423,-0.719666 -0.254,-1.439332 -0.16934,-0.762 -0.16934,-1.481666 0,-0.508 0.29634,-0.888999 0.33866,-0.423333 0.889,-0.465667 0.80433,0 0.80433,0.169334 0.0423,0.127 -0.254,0.380999 -0.29633,0.254 -0.67733,0.550333 -0.381,0.296333 -0.381,0.592666 0,0.677333 0.16933,1.396999 0.21167,0.677333 0.254,1.354666 0.0423,0.762 -0.42333,1.904999 -0.46567,1.100665 -1.22767,1.989665 2.286,1.142999 3.13266,2.793998 0.84667,1.650998 0.889,3.640664 0.93134,-0.465667 1.82034,-0.931333 0.93133,-0.465666 1.65099,-0.973666 0.762,-0.508 1.22767,-1.058332 0.46567,-0.550333 0.46567,-1.143 0,-0.296333 -0.21167,-0.592666 -0.16933,-0.296333 -0.46567,-0.296333 -0.16933,0 -0.29633,0.127 -0.127,0.127 -0.33867,0.08467 -0.16933,-0.04233 -0.46566,-0.127 -0.254,-0.08467 -0.21167,-0.296333 0.0847,-0.846666 0.508,-1.016 0.42333,-0.211666 0.889,0.04233 0.46567,0.211666 0.84667,0.719666 0.42333,0.465666 0.42333,0.973666 0,1.693332 -1.43933,2.878664 -1.397,1.142999 -3.21733,1.820332 1.48166,0.254 2.83633,1.185333 1.35466,0.931332 1.35466,2.412998 0,0.423333 -0.21166,0.931332 -0.21167,0.465667 -0.71967,0.465667 -0.80433,0 -0.889,-0.296333 -0.0423,-0.296333 0.21167,-0.635 0.254,-0.381 0.59266,-0.677333 0.381,-0.338666 0.381,-0.423333 0,-0.465666 -0.46566,-0.888999 -0.42334,-0.423333 -1.10067,-0.761999 -0.67733,-0.338667 -1.48166,-0.550333 -0.762,-0.211667 -1.397,-0.211667 -0.0423,0 -0.381,0.08467 -0.21167,1.312332 -1.22767,2.412998 -1.016,1.058332 -2.62466,1.058332 -1.18534,0 -1.905,0.719667 -0.71967,0.719666 -1.524,1.735665 3.25966,0.508 5.54566,1.947332 2.32833,1.439332 3.81,3.471331 1.48166,1.989665 2.20133,4.402663 0.71967,2.370665 0.762,4.783663 0.0423,3.174998 -1.35467,6.222995 -1.35466,3.005665 -3.80999,5.37633 -2.413,2.370664 -5.715,3.809997 -3.25966,1.439332 -7.06966,1.439332 -1.86266,0 -3.89466,-0.04233 -1.98967,-0.04233 -4.064,-0.338667 -2.032,-0.296333 -4.064,-0.973666 -2.032,-0.677333 -3.93699,-1.947332 -3.048,-1.989665 -5.92667,-4.23333 -2.83633,-2.285998 -5.29166,-4.190997 -2.45533,-1.904998 -4.40266,-3.174997 -1.905,-1.269999 -3.09033,-1.269999 -0.46567,0 -0.889,0.127 2.70933,2.412998 5.63033,4.698996 2.92099,2.243665 5.92666,4.444997 0.29633,-0.423333 0.762,-0.423333 0.67733,0 1.27,0.465666 l -0.635,0.211667 q 0.0423,0 -0.21167,-0.08467 -0.254,-0.127 -0.254,-0.127 -0.381,0 -0.16933,0.296333 0.254,0.296333 0.71966,0.677333 0.46567,0.381 0.97367,0.761999 0.55033,0.381 0.762,0.550333 1.73566,1.269999 3.47133,2.243665 1.778,0.973666 3.76766,1.650999 2.032,0.719666 4.36033,1.100666 2.32834,0.381 5.24933,0.465666 1.69334,-0.211666 3.76767,-0.423333 2.07433,-0.211666 4.61433,-0.465666 l 0.21166,0.677333 q -0.80433,0.338666 -2.79399,0.465666 -1.94734,0.169333 -4.191,0.338667 l -0.127,0.08467 q -0.21167,0.127 -0.80433,0.08467 -0.59267,-0.04233 -0.84667,-0.04233 -1.69333,0.169334 -3.25966,0.465667 -1.56634,0.296333 -2.70934,0.761999 1.10067,0.169333 2.11667,0.211667 1.016,0.04233 1.94733,0.04233 2.87867,-0.04233 5.41866,-0.719666 2.58234,-0.635 5.29167,-1.481666 l -0.0423,0.677333 q -2.66699,0.804333 -5.50333,1.608666 -2.79399,0.804332 -5.75732,0.804332 -2.20134,0 -4.74133,-0.380999 -0.71967,0.634999 -0.80434,1.481665 -0.0847,0.846666 0.29634,1.608666 0.42333,0.804332 1.18533,1.354665 0.762,0.592666 1.73566,0.592666 0.93134,0 2.032,-0.465666 1.143,-0.423333 1.143,-1.312332 0,-0.211667 -0.0847,-0.465667 -0.0847,-0.211666 -0.16933,-0.423333 l 0.67733,-0.634999 q 0.21167,0.254 0.33867,0.677333 0.127,0.465666 0.127,0.804332 0,0.465667 -0.42333,0.931333 -0.42334,0.465666 -1.05833,0.804333 -0.59267,0.338666 -1.31234,0.550333 -0.71966,0.211666 -1.31233,0.211666 -1.143,0 -1.905,-0.423333 -0.71966,-0.423333 -1.18533,-1.100666 -0.46567,-0.634999 -0.635,-1.439332 -0.16933,-0.761999 -0.16933,-1.481665 0,-0.931333 0.42333,-1.481666 -2.20133,-0.423333 -4.40266,-1.185332 -2.159,-0.719666 -3.89467,-1.777999 -1.73566,-1.058333 -2.794,-2.455332 -1.05833,-1.354665 -1.05833,-3.047997 0,-0.423333 0.21167,-1.142999 -1.22767,-0.973666 -2.45533,-1.904999 -1.18534,-0.931333 -2.413,-1.862665 -0.46567,0.169333 -0.97367,0.423333 -0.46566,0.254 -1.05833,0.254 -0.84667,0 -1.05833,-0.254 -0.21167,-0.254 -0.16934,-0.508 0.0423,-0.296333 0.0847,-0.550333 0.0847,-0.254 -0.21167,-0.254 -0.55033,0 -0.76199,0.127 -0.16934,0.08467 -0.16934,0.254 0,0.169333 0.0423,0.381 0.0847,0.211666 0.0423,0.381 -0.0423,0.169333 -0.254,0.296333 -0.21167,0.08467 -0.46567,0.127 -0.21166,0 -0.42333,-0.127 -0.16933,-0.169334 -0.16933,-0.508 0.0423,-0.592666 0.29633,-1.058332 0.29633,-0.508 0.762,-0.508 0.84667,0 1.73566,0.254 0.889,0.211666 1.73567,0.465666 -0.508,-0.465666 -1.143,-0.931333 -0.59267,-0.465666 -1.22767,-0.846666 -1.31233,-0.804332 -2.92099,-1.100665 -1.60867,-0.296334 -3.09033,-0.338667 -0.84667,0.973666 -1.397,2.243665 -0.508,1.227666 -0.508,2.539998 0,0.973666 0.46566,2.031999 0.508,-0.169334 0.889,-0.550333 0.381,-0.381 0.381,-0.635 0,-0.423333 -0.33866,-0.592666 -0.29634,-0.169333 -0.29634,-0.550333 0,-0.211666 0.16934,-0.423333 0.16933,-0.254 0.381,-0.254 0.46566,0 0.84666,0.423333 0.381,0.381 0.381,0.931333 0,0.719666 -0.59266,1.396999 -0.59267,0.677333 -1.35467,1.015999 0.71967,0.973666 1.69333,0.888999 0.889,-0.04233 1.651,-0.465666 0.80433,-0.423333 1.651,-0.888999 0.84667,-0.508 1.82033,-0.889 1.016,-0.423333 2.32833,-0.423333 0.67734,0 1.48167,0.381 0.80433,0.338667 1.43933,0.888999 0.67733,0.550333 1.05833,1.185333 0.42334,0.592666 0.33867,1.100666 l -0.889,-0.423333 q 0.0423,-0.211667 -0.21167,-0.423333 -0.254,-0.254 -0.46566,-0.254 -0.889,0 -1.73567,0.465666 -0.84666,0.465667 -1.69333,1.015999 -0.80433,0.550333 -1.651,0.973666 -0.84666,0.465667 -1.778,0.423333 -2.20133,-0.08467 -3.93699,-1.015999 -1.69334,-0.931332 -2.54,-2.370665 -0.59267,-0.127 -1.143,-0.550333 -0.508,-0.423333 -0.889,-0.973666 -0.381,-0.592666 -0.59267,-1.227665 -0.21166,-0.635 -0.21166,-1.185333 0,-0.973666 0.42333,-1.820332 0.381,-0.846666 1.016,-1.481665 0.635,-0.635 1.397,-0.973666 0.80433,-0.381 1.60866,-0.381 h 0.0423 q 0.0847,0 0.33866,-0.211666 0.254,-0.211667 0.55034,-0.508 0.29633,-0.296333 0.55033,-0.508 0.29633,-0.253999 0.381,-0.338666 -1.143,-0.592666 -2.54,-1.396999 -1.397,-0.804333 -2.54,-0.804333 -0.67733,0 -0.889,0.127 -0.21166,0.08467 -0.16933,0.254 0.0423,0.127 0.16933,0.338666 0.127,0.169334 0.0847,0.338667 -0.0423,0.507999 -0.59267,0.507999 -0.42333,0 -0.67733,-0.296333 -0.254,-0.338666 -0.254,-0.634999 0,-0.719666 0.80433,-0.889 0.762,-0.169333 1.60867,-0.169333 0.46567,0 0.97367,0.08467 0.50799,0.08467 0.97366,0.211666 -1.651,-0.973666 -3.556,-1.608665 -1.90499,-0.677333 -3.72533,-0.677333 -1.651,0 -2.83633,0.508 -1.18533,0.507999 -1.98966,1.312332 -0.80434,0.761999 -1.18534,1.735665 -0.381,0.973666 -0.381,1.947332 0,0.804333 0.33867,1.650999 0.29633,0.804333 0.889,1.481666 0.59267,0.677332 1.48167,1.100665 0.889,0.423333 2.03199,0.423333 1.27,0 2.032,-0.338666 0.762,-0.338666 1.18534,-0.846666 0.42333,-0.550333 0.55033,-1.142999 0.127,-0.635 0.127,-1.185333 0,-0.465666 -0.16934,-1.015999 -0.21166,-0.550333 -0.55033,-1.015999 -0.381,-0.465666 -0.84666,-0.761999 -0.508,-0.338667 -1.10067,-0.338667 -0.67733,0 -1.31233,0.635 -0.67734,0.634999 -0.67734,1.396999 0,0.296333 0.127,0.592666 0.0847,0.296333 0.0847,0.592666 0,0.169333 -0.127,0.423333 -0.16933,0.254 -0.29633,0.465666 -0.16933,0.169334 -0.29633,0.211667 -0.16934,0 -0.16934,-0.254 0,-0.254 0.127,-0.254 0.127,-0.04233 0.127,-0.296333 0,-0.296333 -0.21166,-0.761999 -0.254,-0.465667 -0.254,-0.762 0,-1.312332 0.84666,-1.947332 0.84667,-0.634999 1.73567,-0.677332 0.635,0 1.31233,0.338666 0.635,0.296333 1.143,0.846666 0.508,0.550333 0.84666,1.227666 0.33867,0.634999 0.33867,1.269999 0,0.550333 -0.21167,1.312332 -0.254,0.719666 -0.71966,1.396999 -0.46567,0.677333 -1.18533,1.142999 -0.71967,0.423333 -1.651,0.423333 -1.778,0 -2.96333,-0.465666 -1.22767,-0.465666 -1.94734,-1.185332 -0.71966,-0.762 -1.016,-1.735666 -0.29633,-0.973666 -0.29633,-2.031998 0,-1.185333 0.508,-2.328332 0.46567,-1.142999 1.35467,-2.031998 0.84666,-0.889 2.11666,-1.396999 1.22767,-0.550333 2.75167,-0.550333 1.56633,0 3.17499,0.423333 1.60867,0.423333 3.13267,1.100666 1.524,0.677332 2.87866,1.566332 1.397,0.888999 2.54,1.862665 0.762,-0.338666 1.56633,-0.550333 0.84667,-0.211666 1.69334,-0.211666 2.70933,-0.04233 5.37632,0.973666 2.667,0.973665 5.16467,2.582331 2.49766,1.608665 4.82599,3.640664 2.32834,2.031998 4.36033,4.10633 2.667,2.709331 5.75733,3.767664 3.13267,1.100666 6.68866,1.100666 6.77333,-0.04233 10.414,-4.529663 3.64066,-4.529664 3.51366,-12.530658 -0.0423,-1.735665 -0.67733,-3.47133 -0.635,-1.777999 -1.82033,-3.217331 -1.18534,-1.481666 -2.921,-2.455332 -1.69333,-1.015999 -3.89467,-1.227666 -0.76199,0.931333 -1.56633,1.862666 -0.762,0.931332 -1.48166,1.820332 0.71966,-0.381 1.48166,-0.719666 0.762,-0.338667 1.56633,-0.338667 1.10067,0 1.651,0.719666 0.59267,0.719666 0.59267,1.439332 0,0.296334 -0.16933,0.592667 -0.16934,0.253999 -0.71967,0.338666 0.21167,-0.719666 -0.0423,-1.481665 -0.254,-0.762 -1.43934,-0.719667 -1.14299,0.04233 -2.15899,0.719667 -0.97367,0.634999 -2.032,1.100665 -0.254,0.254 -0.254,0.677333 0.0423,0.381 0.16933,0.846666 0.127,0.465667 0.254,1.015999 0.16933,0.550333 0.16933,1.100666 -0.0423,2.878665 -1.39699,4.86833 -1.35467,1.989665 -3.556,2.666998 2.11666,1.862665 4.40266,1.862665 1.18533,0 2.286,-0.592666 1.143,-0.592666 1.143,-1.862665 0,-1.100666 -0.508,-2.158999 -0.46567,-1.100665 -0.381,-2.201331 0.0423,-1.016 0.508,-1.947332 0.508,-0.931333 1.22766,-1.481666 0.762,-0.550333 1.651,-0.550333 0.889,-0.04233 1.73567,0.804333 -0.71967,0.169333 -1.35467,0.254 -0.635,0.04233 -0.635,0.846666 0,1.058332 0.29634,2.031998 0.33866,0.931333 0.33866,1.904999 0,1.820332 -0.508,3.005664 -0.508,1.185333 -1.35466,1.862666 -0.84667,0.677332 -1.94733,0.931332 -1.05834,0.254 -2.20134,0.254 -1.31233,0 -3.17499,-0.592666 -1.82034,-0.635 -3.25967,-2.074332 h -0.16933 q -0.80433,0 -1.69333,-0.423333 -0.84667,-0.423333 -1.56633,-1.100666 -0.71967,-0.719666 -1.18534,-1.523999 -0.42333,-0.846666 -0.42333,-1.650998 0,-0.508 0.29633,-0.973666 0.33867,-0.465667 0.33867,-0.973666 0,-0.296333 -0.0847,-0.635 -0.0847,-0.338666 -0.127,-0.677333 0.762,0.127 0.84667,0.592667 0.0847,0.423333 -0.0847,1.058332 -0.16933,0.592666 -0.42333,1.227666 -0.21167,0.634999 -0.127,1.100666 0.0847,0.423333 0.42333,0.931332 0.381,0.508 0.889,0.973666 0.55033,0.423333 1.143,0.762 0.635,0.296333 1.18533,0.380999 -0.635,-0.846666 -1.016,-1.947331 -0.381,-1.100666 -0.381,-2.455332 0,-0.846666 0.0423,-1.608665 0.0847,-0.804333 0.254,-1.481666 -3.34433,-0.127 -5.969,-1.608665 -0.21166,0.380999 -0.0423,0.677332 0.16933,0.254 0.55033,0.465667 0.381,0.169333 0.80433,0.296333 0.46567,0.08467 0.80434,0.169333 l -0.29634,0.211667 q -1.05833,-0.127 -2.41299,-0.762 -0.84667,1.777999 -0.84667,3.386664 0,2.709332 1.143,5.164663 1.143,2.412998 3.00566,4.317997 -0.21166,-0.550333 -0.42333,-1.354666 -0.21167,-0.804333 -0.21167,-1.566332 0,-0.761999 0.254,-1.269999 0.29634,-0.550333 1.016,-0.592666 0.29634,0 0.42334,0.380999 0.127,0.338667 0.127,0.508 0,0.08467 -0.21167,0.423333 -0.16933,0.338667 -0.254,0.888999 -0.127,0.889 0.0847,1.820332 0.21166,0.889 0.42333,1.354666 0.254,0.423333 0.33867,0.169333 0.127,-0.296333 -0.16934,-1.777998 0.21167,-0.211667 0.67733,-0.296334 0.46567,-0.08467 0.889,0.296334 0.508,0.423333 0.55034,0.804332 0.0847,0.381 -0.0847,0.762 -0.16933,0.338666 -0.46567,0.761999 -0.29633,0.381 -0.508,0.804333 1.94734,1.354666 4.14867,2.116665 2.20133,0.761999 4.31799,0.761999 6.096,-0.04233 9.35566,-3.85233 3.25967,-3.809997 3.25967,-10.371659 h 0.635 q 0,3.852331 -0.93133,6.646328 -0.889,2.793998 -2.62467,4.61433 -1.69333,1.820332 -4.10633,2.709332 -2.413,0.888999 -5.334,0.888999 -2.53999,0 -4.99533,-0.888999 -2.45533,-0.846666 -4.78366,-2.328332 -2.75166,-1.735665 -4.86833,-4.275663 -2.07433,-2.539999 -3.97933,-5.37633 -0.71966,-1.058332 -1.524,-2.074331 -0.80433,-1.058333 -1.651,-1.862666 -0.84666,-0.846666 -1.73566,-1.312332 -0.889,-0.508 -1.778,-0.508 -0.635,0 -1.35467,0.465667 -0.67733,0.423333 -0.67733,1.100665 0,0.169334 -0.0847,0.423333 -0.0847,0.254 -0.29634,0.254 -0.55033,-0.04233 -0.635,-0.296333 -0.0423,-0.296333 -0.0423,-0.592666 0,-0.423333 0.29633,-0.804333 0.29634,-0.381 0.71967,-0.634999 0.46566,-0.296333 0.97366,-0.465667 0.508,-0.169333 0.93134,-0.169333 0.97366,0.04233 1.94733,0.550333 0.97366,0.508 1.98966,1.439332 -1.94733,-2.920997 -3.97933,-4.868329 -1.98966,-1.947332 -4.52966,-1.947332 -1.397,0 -1.98966,0.677333 -0.55034,0.634999 -0.80434,1.439332 -0.254,0.804333 -0.46566,1.481665 -0.21167,0.635 -0.84667,0.635 -0.29633,0 -0.508,-0.169333 -0.21167,-0.211667 -0.46567,-0.423333 -0.21166,-0.254 -0.42333,-0.465667 -0.21167,-0.211666 -0.508,-0.253999 -0.381,-0.04233 -0.762,0 -0.381,0.04233 -0.42333,0.423333 H 157.771 q -0.127,-1.566333 1.143,-1.566333 0.55033,0 0.84667,0.169334 0.33866,0.169333 0.55033,0.380999 0.254,0.211667 0.46567,0.423333 0.21166,0.169334 0.55033,0.169334 0.254,0 0.21167,-0.592667 0,-0.592666 0.21166,-1.269999 0.254,-0.677333 0.97367,-1.227665 0.71967,-0.550333 2.49766,-0.465667 2.24367,0.08467 4.064,1.439333 1.82033,1.354665 3.556,3.47133 1.73566,2.074332 3.51366,4.74133 1.82033,2.624665 3.97933,5.291663 -0.46566,-1.185333 -0.762,-2.455332 -0.29633,-1.269999 -0.29633,-2.666998 0,-0.931332 0.29633,-1.904998 0.29634,-1.016 0.762,-1.947332 -1.31233,-0.677333 -2.667,-1.820332 -1.31233,-1.142999 -2.41299,-2.666998 -1.05834,-1.523999 -1.73567,-3.386664 -0.67733,-1.862666 -0.67733,-4.021664 v -0.169333 q 0,-0.381 -0.16933,-0.846666 -0.16934,-0.465667 -0.254,-0.846666 -0.0423,-0.254 -0.33867,-0.508 -0.29633,-0.254 -0.59267,-0.465666 -0.29633,-0.254 -0.508,-0.465666 -0.21166,-0.254 -0.127,-0.550333 0.0423,-0.127 0.21167,-0.08467 0.21167,0 0.42333,0.04233 0.21167,0 0.33867,0 0.16933,-0.04233 0.16933,-0.169333 -0.0423,-0.381 -0.508,-0.465666 -0.46566,-0.08467 -0.635,-0.423333 -0.254,-0.423333 0.0847,-0.677333 0.33867,-0.296333 0.16933,-0.423333 -0.21166,-0.169333 -0.381,-0.08467 -0.127,0.08467 -0.254,0.254 -0.127,0.169333 -0.254,0.338667 -0.0847,0.169333 -0.254,0.169333 -0.59266,-0.08467 -0.762,-0.338667 -0.16933,-0.296333 -0.0847,-0.592666 0.127,-0.338666 0.42333,-0.592666 0.29633,-0.254 0.59267,-0.254 0.80433,0 1.27,0.508 0.46566,0.507999 0.762,1.312332 0.29633,0.804333 0.46566,1.820332 0.16933,0.973666 0.33867,1.947332 0.29633,-2.116665 1.31233,-4.23333 1.016,-2.116665 2.54,-3.809997 1.524,-1.693332 3.429,-2.751665 1.94733,-1.100666 4.02166,-1.100666 0.59267,0 1.18533,0.254 0.59267,0.211666 1.143,0.508 l -0.42333,0.888999 q -0.46567,-0.338667 -0.93133,-0.592666 -0.42334,-0.296333 -0.97367,-0.296333 -2.07433,0.04233 -3.97933,1.227665 -1.86267,1.185333 -3.302,3.005665 -1.397,1.820332 -2.24366,4.021663 -0.80434,2.158999 -0.762,4.190997 0.0423,1.904999 0.55033,3.640664 0.55033,1.735666 1.43933,3.259664 0.93134,1.481666 2.11667,2.709332 1.18533,1.185332 2.49766,2.031998 0.0847,-0.169333 0.16934,-0.296333 0.127,-0.127 0.21166,-0.296333 -2.58233,-1.608666 -4.14866,-4.148664 -1.56633,-2.539998 -1.524,-5.291662 0,-2.582332 0.55033,-4.275664 0.59267,-1.693332 1.56633,-2.793998 0.97367,-1.142999 2.286,-1.862665 1.35467,-0.719666 2.921,-1.354666 z m 20.15065,0.423333 q -0.67733,-0.423333 -1.22766,-0.592666 -2.07434,0.592666 -4.23333,0.719666 -2.159,0.127 -4.191,0.677333 -1.31233,0.381 -2.83633,0.846666 -1.524,0.465666 -2.667,1.100666 0.59267,-0.296333 1.48167,-0.381 0.889,-0.08467 1.60866,-0.127 0.97367,-0.04233 2.07433,0.381 1.143,0.381 2.07434,1.058333 0.93133,0.677332 1.52399,1.608665 0.635,0.888999 0.635,1.862665 v 0.550333 q 0.33867,0.423333 0.508,0.889 0.21167,0.465666 0.42334,0.804332 0.21166,0.338667 0.508,0.592667 0.33866,0.211666 0.97366,0.211666 0.46567,0 0.84667,0.04233 0.42333,0 0.84666,0.04233 0.67734,-0.719666 1.31234,-1.396999 0.67733,-0.677333 1.31233,-1.269999 -0.80433,-0.381 -1.35467,-0.931333 -0.508,-0.592666 -0.93133,-1.100666 -0.381,-0.550333 -0.71967,-0.931332 -0.29633,-0.423333 -0.67733,-0.423333 -0.127,0 -0.16933,0.169333 0,0.169333 0,0.380999 0,0.211667 -0.0423,0.381 -0.0423,0.169333 -0.16933,0.169333 -0.46566,0 -0.59266,-0.380999 -0.127,-0.381 0.0423,-0.846666 0.21167,-0.465667 0.71966,-0.846666 0.508,-0.381 1.31234,-0.381 0.762,0 1.35466,0.381 0.59267,0.338666 1.05834,0.804332 0.50799,0.465667 0.93133,1.016 0.46566,0.550333 0.97366,0.931332 0.67734,-0.592666 1.35467,-1.015999 0.67733,-0.423333 1.27,-0.719666 v -0.381 q 0,-0.634999 -0.55033,-1.142999 -0.508,-0.550333 -1.31234,-1.015999 -0.80433,-0.465667 -1.73566,-0.889 -0.93133,-0.423333 -1.73567,-0.846666 z m -4.44499,-1.989665 q -0.508,0.423333 -1.10067,0.846666 -0.59267,0.381 -1.27,0.719666 1.05833,-0.169333 2.159,-0.296333 1.10067,-0.127 2.159,-0.338666 -0.508,-0.211667 -1.016,-0.423333 -0.46567,-0.254 -0.93133,-0.508 z m 8.67832,8.635994 q 0.46567,0 0.67734,-0.465667 0.254,-0.507999 0.33866,-1.100665 -0.889,0.507999 -1.86266,1.354665 0.508,0.211667 0.84666,0.211667 z m -8.21266,6.222995 h -0.42333 q -0.16933,0.931333 0.0423,0.635 0.21167,-0.338667 0.508,-0.635 z m -43.89963,20.404651 q 0,-1.439332 0.42333,-2.793997 0.42333,-1.354666 1.143,-2.455332 -1.22767,0.338666 -2.286,1.312332 -1.05833,0.931333 -1.05833,2.285999 0,0.973666 0.59267,1.862665 0.55033,0.888999 1.39699,1.227666 -0.21166,-0.635 -0.21166,-1.439333 z m 4.95299,-6.942661 q -0.29633,0.169333 -0.59266,0.381 -0.254,0.211666 -0.55033,0.423333 0.80433,0.08467 1.60866,0.254 0.84667,0.169333 1.651,0.465666 -0.508,-0.381 -1.05833,-0.762 -0.508,-0.380999 -1.05834,-0.761999 z m 28.74432,-2.370665 q 0.0423,1.439332 0.55033,2.624665 0.508,1.185332 1.31233,2.116665 3.38667,-0.719666 4.445,-4.063997 -0.59267,0.719666 -1.22767,1.481665 -0.59266,0.719667 -1.48166,0.719667 -0.55034,0 -1.22767,-0.254 -0.635,-0.254 -0.59266,-0.973666 0,-0.635 0.21166,-0.592666 0.21167,0 0.508,0.338666 0.29633,0.296333 0.55033,0.677333 0.254,0.338666 0.381,0.338666 0.46567,-0.04233 0.508,-0.465666 0.0423,-0.423333 0.29634,-0.635 0.46566,-0.338666 1.10066,-0.719666 0.635,-0.423333 1.18533,-0.846666 -0.46566,0.04233 -0.88899,0.296333 -0.42334,0.211667 -0.889,-0.04233 -0.254,-0.127 -0.254,-0.254 0.0423,-0.169333 0.127,-0.338666 0.127,-0.169333 0.21166,-0.338667 0.127,-0.169333 0.0423,-0.380999 -0.16934,-0.296333 0.21166,-0.592666 0.381,-0.296334 0.71967,-0.296334 0.55033,0 0.67733,-0.296333 0.16933,-0.296333 0.0847,-0.677333 -0.0847,-0.380999 -0.29633,-0.804332 -0.21167,-0.423333 -0.33867,-0.677333 -1.27,0.888999 -2.75167,1.396999 -1.48166,0.507999 -2.96333,0.592666 -0.254,1.439332 -0.21166,2.666998 z m -0.42334,-4.86833 q 0.29634,-0.931332 0.71967,-1.735665 0.46567,-0.846666 0.97367,-1.608665 -0.84667,-0.211667 -1.43934,-0.211667 -1.31233,0 -2.49766,0.508 -1.143,0.465666 -2.159,1.269999 0.889,0.634999 1.98967,1.100666 1.10066,0.465666 2.41299,0.677332 z m 2.58233,0.211667 q 1.73567,0 3.21734,-0.762 -1.143,-1.396998 -2.75167,-2.243664 -1.143,1.269999 -1.82033,2.963331 0.33867,0.04233 0.67733,0.04233 0.33867,0 0.67733,0 z m 6.77333,-6.349995 q -1.56633,0.211666 -3.09033,0.931332 -1.48166,0.677333 -2.667,1.862666 0.889,0.380999 1.651,0.931332 0.80434,0.550333 1.397,1.312333 0.55033,-0.550333 1.016,-1.227666 0.46567,-0.677333 0.97367,-1.312333 0.254,-0.550332 0.42333,-1.185332 0.16933,-0.634999 0.29633,-1.312332 z m 5.588,28.490312 q 0.55033,0 0.93133,0.338666 0.381,0.381 0.381,0.846666 0,0.465666 -0.381,0.846666 -0.381,0.381 -0.93133,0.381 -0.55033,0 -0.93133,-0.381 -0.33867,-0.381 -0.33867,-0.846666 0,-0.465666 0.33867,-0.846666 0.381,-0.338666 0.93133,-0.338666 z m 0,0.677332 q -0.59267,0 -0.59267,0.550333 0,0.550333 0.59267,0.550333 0.59267,0 0.59267,-0.550333 0,-0.550333 -0.59267,-0.550333 z m 1.56633,0.381 -0.127,-0.804333 q 1.651,-0.465666 3.175,-1.227665 1.56633,-0.762 3.429,-0.762 0.889,0 1.90499,0.592666 1.05834,0.592667 1.05834,1.481666 0,0.719666 -0.42334,1.100666 -0.381,0.381 -0.84666,0.465666 -0.46567,0.127 -0.84667,-0.08467 -0.381,-0.169334 -0.33866,-0.635 0,-0.254 0.21166,-0.338666 0.21167,-0.08467 0.46567,-0.127 0.254,0 0.42333,-0.04233 0.21167,-0.04233 0.21167,-0.211666 0,-0.508 -0.80433,-0.804333 -0.762,-0.296333 -1.35467,-0.296333 -1.60867,0 -3.175,0.635 -1.524,0.677332 -2.96333,1.058332 z m -0.16933,-1.058332 -0.42334,-0.381 q 1.397,-0.592666 3.048,-1.481666 1.69333,-0.888999 3.13267,-1.820332 1.43933,-0.931332 2.413,-1.735665 0.97366,-0.804333 0.97366,-1.227666 0,-0.296333 -0.381,-0.550333 -0.33867,-0.253999 -0.29633,-0.550333 0.0423,-0.761999 0.381,-1.015999 0.33866,-0.296333 0.635,-0.169333 0.33866,0.08467 0.55033,0.508 0.21167,0.380999 0.0847,0.973666 -0.16934,1.693332 -2.58233,3.59833 -2.413,1.904999 -7.53533,3.852331 z m 1.82033,-15.493989 0.67733,0.211667 q 0.0847,2.709331 -0.84666,4.698996 -0.889,1.947332 -2.413,3.217331 -1.48167,1.269999 -3.38667,1.904999 -1.90499,0.592666 -3.76766,0.592666 -1.94733,0 -3.85233,-0.719666 -1.86267,-0.719666 -3.25966,-2.582332 l 0.21166,-0.465666 q 1.60867,1.735665 3.13267,2.328332 1.56633,0.550333 3.38666,0.550333 1.22767,0 2.87867,-0.296333 1.69333,-0.338667 3.25966,-1.354666 1.56633,-1.015999 2.70933,-2.920998 1.143,-1.947332 1.27,-5.164663 z m -21.25132,18.541986 q 1.27,-0.719666 4.10633,-1.227665 -2.49766,-0.338667 -4.78366,-1.100666 -2.286,-0.719666 -4.318,-1.608666 -1.98966,-0.888999 -3.59833,-1.904998 -1.60866,-0.973666 -2.75166,-1.820332 -0.254,-0.169333 -0.508,-0.381 -0.21167,-0.211666 -0.46567,-0.381 -0.127,0.338667 -0.127,0.635 0.0423,1.523999 1.143,2.751664 1.10067,1.27 2.87867,2.243665 1.77799,1.016 3.97933,1.693333 2.20133,0.719666 4.44499,1.100665 z m 38.35401,-31.114976 q 1.397,-0.08467 2.794,0.761999 1.43933,0.846666 2.58233,2.201332 1.143,1.354665 1.86266,3.005664 0.71967,1.650999 0.71967,3.174998 0,1.862665 -0.508,3.386664 -0.46567,1.523999 -1.22766,2.793998 -0.71967,1.269999 -1.60867,2.370665 -0.889,1.058332 -1.73567,2.031998 -0.88899,1.015999 -1.26999,1.989665 -0.381,0.973666 -0.762,1.693332 -1.524,-0.211666 -2.96333,-1.015999 -1.43934,-0.804333 -2.54,-2.074332 -1.10067,-1.269999 -1.778,-2.963331 -0.67733,-1.735665 -0.67733,-3.767663 0,-1.566333 0.55033,-3.217331 0.55033,-1.693332 1.43933,-3.217331 0.889,-1.566332 1.98967,-2.878665 1.143,-1.312332 2.32833,-2.201332 0.16933,-1.058332 0.80433,-2.074331 z m 5.08,13.250323 q 0,-1.396999 -0.381,-2.836331 -0.33867,-1.439332 -1.05834,-2.751665 -0.71966,-1.312332 -1.86266,-2.328331 -1.10067,-1.016 -2.58233,-1.523999 -0.889,0.169333 -1.56633,0.846666 -0.635,0.677333 -1.05834,1.608665 -0.381,0.931333 -0.59266,2.031999 -0.21167,1.100666 -0.21167,2.116665 0,1.396999 0.33867,2.793998 0.381,1.396999 1.143,2.624664 0.762,1.227666 1.98966,2.201332 1.22767,0.973666 3.00567,1.523999 0.46566,-0.677333 0.97366,-1.227666 0.508,-0.592666 0.889,-1.227665 0.42333,-0.677333 0.67733,-1.566333 0.29634,-0.931332 0.29634,-2.285998 z m -4.36033,-4.825996 q -1.43934,0.254 -2.20134,1.439332 -0.76199,1.142999 -0.76199,2.370665 0,2.031998 0.84666,3.386664 0.84667,1.354666 2.70933,3.005664 -0.16933,0.381 -0.67733,0 -1.35467,-1.354665 -2.32833,-2.709331 -0.97367,-1.354666 -0.97367,-3.809997 0,-0.677333 0.16934,-1.439332 0.16933,-0.762 0.55033,-1.396999 0.381,-0.677333 0.97366,-1.142999 0.59267,-0.465667 1.43934,-0.592667 0.67733,0.338667 0.254,0.889 z m 23.49501,-7.577661 v 17.82232 l 0.33867,-0.08467 q -0.127,-2.116665 -0.0423,-3.301997 0.0847,-1.185333 0.29634,-1.777999 0.254,-0.592666 0.59266,-0.719666 0.33867,-0.169333 0.635,-0.169333 0.127,0.08467 0.29634,0.211666 0.16933,0.127 0,0.592666 -1.10067,0.338667 -1.35467,1.396999 -0.254,1.015999 -0.0847,3.725331 l 0.381,-0.08467 q 0.29634,-0.08467 0.254,0.338667 -0.0423,0.423333 -0.16933,0.634999 -1.27,0.719666 -2.07433,1.735665 -0.762,1.016 -1.56633,2.201332 -1.27,0.08467 -1.27,-0.761999 v -3.005665 q -0.42334,0.550333 -0.889,1.185333 -0.46567,0.634999 -1.05834,1.185332 -0.55033,0.550333 -1.26999,0.931333 -0.71967,0.338666 -1.60867,0.338666 -1.397,0.04233 -2.20133,-0.296333 -0.762,-0.381 -1.73567,-0.381 -0.67733,0 -1.18533,0.254 -0.508,0.211667 -1.016,0.423333 -0.42333,0 -0.381,-0.254 0.0423,-0.253999 0.33867,-0.592666 0.29633,-0.338666 0.67733,-0.677333 0.381,-0.380999 0.59267,-0.550333 l 0.127,-0.126999 q 0.635,-0.635 1.10066,-1.777999 0.508,-1.142999 0.84667,-2.455332 0.33867,-1.312332 0.508,-2.666998 0.16933,-1.354665 0.16933,-2.455331 0,-1.015999 -0.16933,-2.285998 -0.127,-1.312333 -0.508,-2.455332 -0.381,-1.142999 -1.016,-1.947332 -0.635,-0.804332 -1.60867,-0.804332 -0.16933,0 -0.46566,0.296333 -0.254,0.253999 -0.42334,0.338666 -0.46566,0 -0.46566,-0.423333 0.42333,-0.508 0.80433,-1.227666 0.381,-0.761999 0.762,-1.481665 0.381,-0.719666 0.762,-1.227666 0.42333,-0.508 0.93133,-0.508 0.67734,0 1.22767,0.635 0.59266,0.592666 1.016,1.142999 1.10066,1.396999 1.56633,3.301998 0.46567,1.862665 0.46567,3.005664 -0.0423,3.640664 -1.31234,6.773328 -1.27,3.132665 -2.87866,5.24933 0.29633,-0.169334 0.84667,-0.169334 0.97366,0 1.98966,0.338667 1.05833,0.338666 2.032,0.338666 0.84667,0 1.778,-0.592666 0.97366,-0.592666 1.651,-1.777999 V 50.190484 q -0.254,-0.127 -0.55034,0.04233 -0.254,0.169333 -0.508,0.169333 -0.254,0 -0.254,-0.338666 0,-0.338667 0.16934,-0.635 1.27,-0.719666 1.94733,-1.777998 0.67733,-1.100666 1.524,-2.285999 0.67733,-0.04233 1.05833,0.211667 0.381,0.254 0.381,0.677333 z m -4.74133,8.000994 q -1.10067,0.296333 -1.98966,1.608665 -0.889,1.312333 -0.889,2.793998 0,1.227666 0.21166,2.497665 0.254,1.269999 0.42334,2.497665 -0.21167,0.211666 -0.42334,-0.381 -0.16933,-0.592666 -0.33866,-1.481666 -0.127,-0.888999 -0.254,-1.777998 -0.0847,-0.931333 -0.0847,-1.396999 0,-1.396999 0.635,-2.878665 0.635,-1.523999 2.032,-2.370665 0.84666,0.254 0.67733,0.889 z m 7.70471,13.715989 V 42.147156 q 0,-1.227665 -0.46567,-2.751664 -0.42333,-1.523999 -1.82033,-2.497665 l 0.16933,-0.338666 q 0.93133,0.127 2.159,1.100666 1.22767,0.931332 1.94733,2.878664 0.29634,-2.328332 1.35467,-4.063997 1.10066,-1.777999 2.794,-2.709331 l -0.16934,0.804333 q -1.143,1.269999 -1.69333,2.920997 -0.508,1.650999 -0.508,3.513664 v 23.029316 l 0.33867,-0.08467 q -0.0423,-2.243665 -0.0423,-4.23333 0,-2.031999 0.16934,-3.513664 0.16933,-1.481666 0.55033,-2.370665 0.42333,-0.889 1.18533,-0.889 0.16934,0.04233 0.254,0.254 0.0847,0.169333 -0.0423,0.719666 -0.635,0.381 -1.016,1.016 -0.33867,0.592666 -0.508,1.735665 -0.127,1.142999 -0.16933,2.920998 -0.0423,1.735665 -0.0423,4.317996 l 0.381,-0.08467 q 0.33867,-0.04233 0.254,0.381 -0.0423,0.423333 -0.16933,0.592666 -1.27,0.719666 -2.032,1.735665 -0.762,1.015999 -1.60866,2.201332 -1.27,0.04233 -1.27,-0.762 z m 18.66899,-1.989665 q -0.67734,0.508 -1.143,1.185333 -0.46567,0.634999 -0.635,1.481665 -0.55034,0.169333 -0.889,-0.211666 -0.889,-1.015999 -2.20133,-1.396999 -1.31234,-0.381 -2.75167,-0.381 -0.93133,0 -1.82033,0.423333 -0.84667,0.423333 -1.43933,1.354666 -0.254,0 -0.46567,-0.08467 -0.16933,-0.08467 -0.21167,-0.381 0.59267,-0.804332 1.27,-1.608665 0.67734,-0.846666 1.48167,-1.523999 0.80433,-0.677333 1.69333,-1.100666 0.93133,-0.423333 1.94733,-0.423333 1.143,0 2.62467,0.635 1.524,0.592666 2.20133,1.312332 0.59267,-0.634999 0.80433,-1.523999 0.21167,-0.888999 0.21167,-1.777998 0,-1.227666 -0.29633,-2.497665 -0.254,-1.269999 -1.22767,-2.201332 -0.127,-0.127 -0.29633,-0.254 -0.127,-0.127 -0.29634,-0.253999 -0.635,1.185332 -2.159,1.989665 -1.48166,0.804332 -2.83633,0.804332 -0.42333,0 -0.55033,-0.04233 -0.33867,0.338667 -0.93133,-0.169333 -0.55034,-0.508 -1.397,-1.100666 -0.80433,-0.634999 -1.31233,-1.396999 -0.46567,-0.761999 -0.46567,-1.566332 0,-2.793998 1.35467,-4.61433 1.39699,-1.862665 3.55599,-2.836331 1.778,-0.804333 2.75167,-2.328332 0,-0.08467 0.42333,0.127 0.46567,0.169333 0.97367,0.381 0.55033,0.211666 1.05833,0.423333 0.508,0.211666 0.635,0.211666 0.67733,0 1.27,-0.338666 0.59266,-0.381 1.27,-1.015999 0.21166,0.04233 0.381,0.211666 0.16933,0.169334 0.0847,0.550333 -2.20133,3.428998 -5.20699,3.428998 -0.762,0 -1.60867,-0.211667 -0.80433,-0.211666 -1.651,-0.677333 -1.73566,1.523999 -1.73566,3.428998 0,0.931332 0.46566,2.243665 0.508,1.312332 1.43934,2.116665 1.56633,-1.312333 3.47133,-1.735666 -0.0847,-0.380999 0.0423,-0.423333 0.127,-0.08467 0.381,-0.04233 0.254,0.04233 0.55033,0.169333 0.33867,0.127 0.59267,0.127 0.84667,0 1.905,0.254 1.05833,0.254 1.778,0.846666 0.84666,0.677333 1.22766,1.735665 0.381,1.016 0.33867,1.989666 -0.0423,1.142999 -0.508,2.074331 -0.42333,0.931333 -1.10067,1.735666 -0.67733,0.804332 -1.48166,1.523999 -0.80434,0.677332 -1.56633,1.354665 z m -3.81,-8.84766 q 0.55033,0 0.889,-0.254 0.33866,-0.296333 0.55033,-0.677332 -0.33867,-0.169334 -1.016,-0.169334 -0.93133,0 -1.778,0.719667 0.635,0.380999 1.35467,0.380999 z m 0.67733,-6.349995 q -0.21167,-0.127 -0.55033,-0.169333 -0.29634,-0.04233 -0.508,-0.04233 -0.84667,0 -1.56633,1.143 -0.67734,1.142999 0,3.174997 -0.0423,0.127 -0.16934,0.127 -0.127,0 -0.21166,-0.127 -0.508,-1.142999 -0.42334,-2.074332 0.0847,-0.931332 0.46567,-1.608665 0.381,-0.677333 0.889,-1.015999 0.55033,-0.381 0.97367,-0.381 0.25399,0 0.59266,0.08467 0.381,0.08467 0.635,0.211666 0.254,0.127 0.254,0.296333 0.0423,0.169333 -0.381,0.381 z m 3.13267,13.419657 q -0.254,0.253999 -0.381,-0.08467 0.0847,-1.735665 -0.635,-2.709331 -0.67734,-0.973666 -1.778,-0.973666 -0.29634,0 -0.635,0.08467 -0.29634,0.08467 -0.42334,0.381 -0.55033,0.04233 -0.67733,-0.169333 -0.127,-0.211667 0.0423,-0.465666 0.16933,-0.254 0.50799,-0.465667 0.381,-0.254 0.84667,-0.254 0.67733,0 1.27,0.423333 0.635,0.381 1.05833,1.058333 0.46567,0.635 0.67734,1.481666 0.254,0.804332 0.127,1.693332 z"
       id="text1"
       style="font-size:42.3333px;font-family:'Rothenburg Decorative';-inkscape-font-specification:'Rothenburg Decorative';stroke:#ffffff;stroke-width:0"
       aria-label="Small Souls" />
  </g>
</svg>
